<?xml version="1.0" encoding="utf-8"?>
<!-- Generator: Adobe Illustrator 26.0.2, SVG Export Plug-In . SVG Version: 6.00 Build 0)  -->
<svg version="1.2" baseProfile="tiny" id="butcher" xmlns="http://www.w3.org/2000/svg" xmlns:xlink="http://www.w3.org/1999/xlink"
	 x="0px" y="0px" viewBox="0 0 167 280" overflow="visible" xml:space="preserve">
<g id="pig">
	<path fill="#FFFFFF" d="M33.2,278.3c-3.4,0-6.3-0.3-9.1-0.8c-1.3-0.3-2.3-0.6-3.2-1.2c-1.9-1.2-2.7-3.2-2-5.4
		c0.6-2.2,1.8-3.8,3-5.4l0,0c0.2-0.2,0.3-0.4,0.5-0.6c0.4-0.5,0.8-1.1,1.2-1.5c0.7-0.8,1.3-1.6,1.8-2.5c1.8-3.3,2.2-6.6,1.2-10.1
		c-0.8-2.9-1-5.5-0.5-7.9c0.2-1.2,0.7-2.3,1.3-3.6l0.1-0.3c0.3-0.6,0.6-1.3,1.1-1.9c0.8-1.1,0.9-2,0.3-3.3
		c-1.6-3.7-1.7-7.6-0.5-11.7c0.6-1.9,0.9-3.9,1.2-6.5c0-0.2,0-0.5-0.1-0.7c0-0.1-0.1-0.3-0.1-0.3c-0.1-0.2-0.1-0.4-0.1-0.6
		c-0.8-3.7-0.8-7.7-0.1-12.7c0.1-0.6,0.2-1.2,0.3-1.8c0.2-1.2-0.6-2.3-1.7-2.6c-1.3-0.3-2.7-0.6-4.2-0.9c-0.1,0-0.3,0-0.4,0h-0.1
		c-1.7,0-2.4-0.9-2.7-1.4c-0.3-0.5-0.7-1.7,0.2-3.1c0.2-0.3,0.4-0.5,0.6-0.8c2.5-2.2,3.7-5.2,4.8-9.1c1.5-5.2,2.2-10.6,2.8-15.7
		c0.4-4,0.6-8,0.8-12.2c0.1-1.1-0.6-2-1.6-2.3c-3-0.9-5.7-2.1-8.1-3.6c-2.7-1.6-5-2.6-7.5-3.1c-2-0.4-3.9-1.2-5.3-1.9
		c-3.7-1.8-5.4-4.9-4.9-9c0.2-1.1,0.4-2.3,0.7-3.7c0.1-0.4,0.1-0.8,0-1.1c-2.4-8.8-1.5-17.3,2.5-25.4c1.1-2.2,2.3-4.2,3.5-6.2
		l0.5-0.9c1.4-2.5,3.2-5.8,4.2-9.4c0.2-0.7,0.2-1.4,0.3-2.3c0-0.6,0.1-1.1,0.1-1.7c0.8-6.3,4-11.4,9.5-15.3
		c5.7-4.1,12.2-6.1,19.2-6.1c0.5,0,1,0,1.4,0c0.2,0,0.3,0,0.5,0c1.1,0,1.9-0.1,2.7-0.9c1.5-1.4,3.2-2.6,5.2-3.8c1-0.6,1.4-1.8,1-2.9
		c-0.3-0.8-0.6-1.5-0.8-2.2c-0.7-2.4-1.6-5.5-1.2-9c0.1-0.7-0.2-1.5-0.7-1.9l-0.2-0.2c-3-2.7-3.7-6.7-1.9-10.3
		c0.5-1,0.2-2.3-0.7-2.9c-1-0.7-1.6-1.9-1.7-3.3c-0.1-1.6,0.1-3.1,0.3-4.5v-0.1c0.1-0.4,0.1-0.8,0.2-1.3c0.4-3.8-0.6-6.9-3.1-9.3
		l-0.2-0.2c-0.5-0.5-1-0.9-1.4-1.4L42,7.4c-1-1-1.3-2-1-3.1c0.4-1.2,1.3-2,2.8-2.2h0.1c0.6-0.7,1.6-0.7,2.7-0.7c0.8,0,1.6,0,2.6,0.1
		c5.3,0.4,9.9,3.1,14.1,8.1l0.1,0.2c0.9,1.1,1.9,2.3,2.8,3.6c0.4,0.7,1.2,1.1,1.9,1.1c0.2,0,0.3,0,0.5-0.1c1.8-0.4,3.6-0.6,5.3-0.6
		c4,0,8.1,0.9,12.4,2.8c0.3,0.1,0.6,0.3,0.8,0.4c0.3,0.2,0.7,0.3,1.1,0.3c0.5,0,1-0.2,1.5-0.5c1.8-1.5,3.3-2.7,4.8-3.8
		c2.7-2,6.3-4.4,11-5.1c1.1-0.2,2.3-0.3,3.4-0.3c4.5,0,8.8,1.4,12.8,4.2c0.1,0.1,0.3,0.2,0.4,0.3l0.1,0.1l0.1,0.1
		c1.8,1.5,1.5,2.8,1.5,3.3c-0.1,0.7-0.7,2.3-3,2.4c-0.1,0-0.3,0-0.4,0.1c-1.8,0.4-3.3,0.8-4.7,1.6c-1.1,0.6-1.8,1.3-2.2,2.2
		c-0.2,0.5-0.6,1.3-1.3,1.9c-0.4,0.4-0.7,0.9-0.8,1.5v0.1c-0.1,0.9-0.6,1.7-1.5,2.2c-0.8,0.5-1.2,1.4-1,2.3c0.1,0.7,0.2,1.4,0.4,2.1
		l0.1,0.6v0.1c0,0.1,0,0.1,0,0.2c0.2,1.4,0.1,2.5-0.4,3.4c-0.3,0.5-0.4,1.2-0.2,1.8c0.6,2,0,3.7-1.8,5.1c-1.5,1.2-3.1,2.4-4.7,3.4
		c-0.2,0.1-0.4,0.2-0.6,0.3c-0.7,0.3-1.1,0.9-1.2,1.7c-0.2,1.1-0.5,2.1-1,3.2c-0.5,1-0.2,2.1,0.6,2.8c2.2,1.8,4.5,4,6.8,6.6
		c0.3,0.3,0.7,0.6,1.2,0.7c8.6,2.1,17.3,5.2,26,9.2c5.2,2.4,9.2,5.4,12,9.2c3.7,4.9,5.6,10.8,5.5,17.3v0.1c0,0.2,0,0.4,0,0.5
		c-0.1,0.5,0,1.1,0.2,1.5c0.1,0.1,0.2,0.4,0.2,0.4c0.1,0.1,0.2,0.3,0.2,0.4c3.8,7.1,6,12.9,7,18.8c0,0.3,0.1,0.5,0.2,0.7v0.1
		c0.2,0.4,0.4,0.8,0.6,1.2l0,0c0.4,1,0.8,1.9,1.3,2.7c2.6,4.6,3.9,9.9,3.8,16.2c0,0.7,0,1.5-0.1,2.2c-0.1,1.6-0.1,3.2,0.1,4.6
		c0.6,3.2-1.2,5.2-2.1,6.3c-3.9,4.6-9.2,7.4-15.7,8.6c-1.1,0.2-2.2,0.3-3.3,0.3c-1.8,0-3.5-0.3-5.1-0.9c-0.3-0.1-0.5-0.1-0.8-0.1
		c-0.7,0-1.3,0.3-1.8,0.8c-0.6,0.7-0.7,1.8-0.3,2.6l0.7,1.3c2.5,4.6,5,9.4,7,14.4c1.3,3.1,2.1,6.2,2.7,8.6c0.1,0.6,0.2,1.1,0.2,1.5
		v0.2c0.1,1.7-0.9,2.5-1.4,2.9c-0.4,0.3-0.9,0.4-1.4,0.4c-0.4,0-0.8-0.1-1.1-0.3s-0.7-0.2-1-0.2c-0.1,0-0.2,0-0.4,0
		c-1,0.2-2.2,0.5-3.6,1.1c-0.5,0.2-0.9,0.4-1.4,0.7c-0.9,0.5-1.4,1.4-1.2,2.4c0.5,2.8,1,5.8,1,9c0.1,2.7-0.2,5.5-0.8,8.3
		c-0.2,0.8,0,1.6,0.2,3c0,0.2,0.1,0.4,0.1,0.6c0.2,1.3,0.6,2.7,1,4.5c0.8,3.1,0.7,6.2-0.3,9.3c-0.1,0.3-0.2,0.5-0.2,0.8v0.1
		c-0.1,0.4-0.2,0.8-0.4,1.3c-0.2,0.6-0.2,1.2,0.1,1.8c0.2,0.4,0.3,0.6,0.4,0.8c2.6,4,3.3,8.6,2,13.7c-0.6,2.2-0.9,4.1-0.4,5.9
		c0.7,2.7,1.6,4.6,2.9,6.2c1.2,1.5,2.3,2.9,3.3,4.3c0.8,1.2,1.4,2.3,1.8,3.5c0.8,2.6-0.1,4.8-2.5,6c-1.6,0.8-3.2,1.1-4.4,1.2
		c-2.8,0.3-5.3,0.5-7.7,0.5c-1.8,0-3.5-0.1-5.2-0.3c-0.6-0.1-1.3-0.2-1.9-0.4c-2.4-0.7-3.6-2.7-3.1-5.1c0.2-0.7,0.4-1.4,0.6-2.1
		s0.4-1.4,0.5-2.1c0.3-2,0.1-3.6-0.6-5.1c-1-2.1-2.3-4.2-4.1-6.3c-0.6-0.7-1.2-1.4-1.7-2l-0.2-0.2c-0.4-0.5-0.8-0.9-1.2-1.4
		c-3.5-4.1-4.7-9-3.4-14.1c0.1-0.4,0.2-0.8,0.2-1.3c0.1-0.8-0.2-1.5-0.8-2c-1.5-1.3-3-2.4-4.7-3.6c-0.7-0.5-1.4-1.1-2.2-1.6
		c-3.2-2.4-5.9-5.3-8.1-8.6l-0.1-0.1c-2-2.9-4-5.9-6-8.9c-0.4-0.6-1.2-1-1.9-1l0,0c-0.3,0-0.6,0-0.8,0c-2.9,0-5.9-0.1-8.9-0.4
		c-0.1,0-0.1,0-0.2,0c-0.8,0-1.5,0.4-2,1.1c-0.7,1.1-1.4,2.1-2.1,3.1c-0.6,0.8-1.1,1.6-1.6,2.4l-0.1,0.1c-1.3,2-2.6,4-4.1,6
		c-2.1,2.7-4.7,5.2-8.4,7.9c-0.9,0.7-1.8,1.3-2.7,2.1h-0.1c-0.7,0.5-1.4,1.1-2.1,1.6l0,0c-0.7,0.5-1.1,1.4-0.9,2.2
		c0,0.1,0,0.2,0.1,0.4c0.3,1.5,0.5,2.8,0.6,4.1c0.3,3.3-0.7,6.5-2.8,9.5c-1.2,1.8-2.7,3.4-4,4.9l-0.7,0.8c-1.8,2.1-3.2,4.5-4.2,7.3
		c-0.1,0.3-0.1,0.5-0.1,0.8s0,0.6,0.1,1.3c0,0.4,0.1,0.7,0.1,1c0.1,0.8,0.3,1.5,0.6,2.4c0.2,0.6,0.3,1.1,0.5,1.7
		c0.6,2.6-0.7,4.8-3.3,5.5c-1.7,0.4-3.4,0.5-4.9,0.6C34.6,278.3,33.9,278.3,33.2,278.3z"/>
	<path d="M120.4,122.6c-1.7-0.6-3.4-1.4-5.1-2.3c1.5-1.6,2.9-3.1,4.3-4.9c0.2,0.8,0.3,1.5,0.5,2.1c0.3,1.3,0.8,2.5,1.5,3.6
		c0.2,0.2,0.2,0.5-0.1,0.6C121.1,121.9,121.2,122.8,120.4,122.6z M121.8,131.7c0.7,0.3,1.5,0.6,2.1,0.9c0.3,0,0.3-0.1,0.4-0.7
		c0.2-1.7,0.6-3.2,1.2-4.8c0.5-1.2,0.5-1.2-0.8-1.5c-0.3-0.1-0.6-0.2-0.7,0.2c-0.7,1.8-1.4,3.6-2.2,5.3
		C121.6,131.4,121.6,131.6,121.8,131.7z M38.8,269.1c-0.2-1.3-0.2-1.3-1.4-1.1c-2.7,0.3-5.3,0.5-7.9-0.3c-1.1-0.3-2-0.8-2.3-2.1
		c-0.9,0.6-1.4,1.4-2,2.2c-1,1.3-1.6,2.9-2.5,4.2c-0.3,0.4-0.1,0.8,0.3,1c0.5,0.3,1.1,0.5,1.7,0.6c4,0.8,8.1,0.8,12.1,0.6
		c0.9,0,1.7-0.2,2.6-0.4c0.5-0.1,0.7-0.3,0.4-0.8C39.2,271.9,39,270.5,38.8,269.1z M96.3,137.5c4.6,1,9.2,1.8,13.8,1.8
		c0.5,0,0.9,0,1.4,0c1.9-0.1,3.8-0.2,5.6-1c0.5-0.2,0.8-0.5,0.9-1.2c0.2-2.2,0.9-4.2,2.1-6c0.3-0.4,0.7-0.7,0.8-1.2
		c0.5-1.4,1.1-2.7,1.8-4.1c0.3-0.5,0.2-0.7-0.4-0.8c-2.7-0.8-5.3-1.9-7.9-3.1c-0.5-0.2-0.8-0.2-1.1,0.2c-2.2,2.1-4.7,3.9-7,6
		c-0.4,0.3-0.6,0.3-1,0c-1.4-1.1-2.9-2-4.4-2.9c-0.4-0.3-0.6-0.2-0.8,0.3c-1.6,3.4-3.6,6.5-5.4,9.7c-0.4,0.7-0.6,1.1,0.3,1.4
		C95.6,136.7,95.7,137.4,96.3,137.5z M91.3,142.1c-0.2,1.6-1,2.9-2.3,3.8c-0.2,0.1-0.7,0.2-0.3,0.6c0.3,0.3,0.5,0.9,1.1,0.6
		c2.1-1.1,5.1-4.2,5.2-7.6c0-0.7,0-1.3-0.5-1.9c-0.4-0.6-0.7-0.5-1,0.1c-0.4,0.8-0.8,1.8-1.4,2.4C91.5,140.8,91.4,141.4,91.3,142.1z
		 M73.6,208.8c0.1,0,0.2,0,0.3,0.1c0,0.1,0,0.2-0.1,0.2c-2.6,3.2-5,6.7-7.3,10.1c-2.4,3.7-5.4,6.7-8.9,9.3c-1.3,1-2.6,2-3.9,3
		c-1.4,1.1-2.5,2.5-3.4,4s-0.6,3.1-0.4,4.7c0.2,1.4,0.4,2.7,0.3,4.1c-0.2,2.7-1.5,4.8-3.1,6.8c-1.4,1.7-2.8,3.3-4.2,4.9
		c-2.4,2.9-4,6.3-4.4,10.1c0,0.3-0.1,0.4-0.4,0.5c-2.9,0.6-5.8,0.9-8.7,0.1c-1.8-0.5-1.8-1.3-1-3.1c0.9-2,2-4,2.5-6.2
		c0.5-2.4,0.1-4.8-0.4-7.1c-0.4-2-0.9-4-0.6-6.1c0.2-1.3,0.7-2.5,1.3-3.6c0.4-0.9,0.9-1.7,1.3-2.6c0.7-1.5,0.9-3.1,0.3-4.8
		c-0.5-1.4-1-2.8-1.2-4.3c-0.3-1.9,0.1-3.8,0.5-5.6c0.3-1.4,0.6-2.8,0.9-4.2c1,2.4,2,4.9,3.1,7.5c0.3-1.4,0.1-2.6-0.1-3.8
		c-0.4-1.9-1.1-3.6-1.8-5.4c-1.8-4.9-2.1-10-1.4-15.1c0.2-1.7,0.5-3.3,0.7-5c0.1-0.7,0.2-0.9,1-0.6c5,1.9,10,4,15,6
		C57.5,205.7,65.4,207.8,73.6,208.8z M36.8,241.6c2,4.5,1.1,8.9-0.1,13.4C39.7,250.8,39.8,244.9,36.8,241.6z M46.1,231.9
		c-0.2-0.2-0.5,0.1-0.7,0.2c-1,0.5-1.9,1.2-3,1.5c-1.8,0.6-3,0-3.8-1.7c-0.3-0.6-0.4-1.1-0.5-1.7c-0.1-0.4-0.1-0.8-0.5-1.3
		c-0.4,1.9-0.2,3.4,0.8,4.9c0.5,0.7,1.2,1.2,2.1,1.3c1.8,0.4,4.5-0.8,5.5-2.4C46.1,232.4,46.4,232.1,46.1,231.9z M63.1,214.6
		c-1.1,1.5-2.1,2.7-3.2,3.9c-3.3,3.3-7,6.1-11.3,7.8c-0.4,0.1-0.7,0.3-0.6,0.8c0.1,0.6,0.1,1.2,0.2,1.8c0.4-0.2,0.5-0.5,0.6-0.8
		c0.1-0.5,0.4-0.7,0.9-0.9c1.9-0.7,3.6-1.7,5.3-2.8c3.2-2.2,5.9-4.8,7.6-8.3C62.8,215.7,63,215.3,63.1,214.6z M81,147.6
		c0.8,0.4,1.2,1.8,0.9,2.6c-0.6,1.3-1.5,2.5-2.5,3.6c-0.5,0.5-1,0.9-1.6,1.1c-1.6,0.7-2.5,0.1-2.4-1.4c0-1.4,0.2-2.4,1.4-3
		c0.9-0.5,1.5-1.4,2-2.3C79.3,147.2,80.1,147,81,147.6z M134.2,267.9c-2.2,0.3-4.5,0.2-6.7-0.2c-0.6-0.1-0.9-0.1-1,0.7
		c-0.1,1.2-0.3,2.4-0.7,3.6c-0.5,1.7-0.5,1.8,1.3,1.9c4.3,0.4,8.6,0.3,12.9-0.4c0.8-0.1,1.5-0.3,2.2-0.7c0.6-0.3,0.8-0.7,0.3-1.3
		c-0.3-0.4-0.5-0.8-0.7-1.2c-0.9-1.9-2-3.6-3.7-5.1c-0.3,1.2-1.1,1.8-2.1,2.1C135.4,267.7,134.8,267.8,134.2,267.9z M89.1,58.5
		c-1.5,1.3-2.8,2.8-4.4,4c-5.4,4-11.3,5.1-17.7,3.1c-2.7-0.8-4.8-2.5-6.1-4.9c-2.3-4-4.3-8.2-5.4-12.8c-0.7-3.1-0.5-6.2,0.9-9.1
		c0.8-1.8,1.1-3.6,1-5.5c-0.1-1.5,0.2-2.9,0.9-4.2c0.8-1.6,1.6-3.2,2.4-4.8c0.2-0.3,0.4-0.6,0.3-1.2c-0.6,0.8-1.1,1.5-1.7,2.2
		c-0.4-0.9-0.1-1.7,0.4-2.3c1.4-1.7,0.9-3.3,0.3-5.1c-1.7-5.1-6.1-9.7-11-11.4c0.5,0.6,1,1,1.5,1.3c1.7,1.1,3.2,2.4,4.6,3.9
		c2.1,2.4,3.6,5.1,4.3,8.3c0.1,0.6,0.1,1.2-0.3,1.7c-0.8,1.3-0.9,2.8-0.7,4.3c0.1,0.4,0,0.7-0.2,1c-0.5,0.8-0.9,1.5-1.3,2.3
		c-0.6,1.1-0.9,2.3-0.8,3.6c0,0.7-0.1,1.5,0,2.2c0.1,1.6-1.1,2.4-2,3.3c-0.1,0.2-0.3,0.2-0.4,0c-1.4-1.6-2.6-3.4-2.2-5.7
		c0.1-0.8,0.5-1.4,0.9-2c0.5-0.8,1.1-1.6,1.3-2.5c0.3-1.1,0-1.6-1.2-1.8c0.2-0.6,0.6-0.9,0.9-1.4c0.2-0.3,0.4-0.5,0.2-0.8
		s-0.5-0.3-0.9-0.3c-0.6,0.1-1.2,0.3-1.8,0.4c-0.9,0.2-1,0-1-0.9c-0.1-1.4,0.2-2.8,0.4-4.2c0.7-5.6-0.7-10.3-5.4-13.8
		c-0.1,0-0.1-0.1-0.2-0.3c4.5,0.2,8.8,0.9,12.4,4c2.9,2.5,5.2,5.5,7.3,8.7c0.3,0.4,0.3,0.8,0,1.2c-0.2,0.4-0.4,0.7-0.5,1.3
		c1.9-1,3.9-1.6,5.9-1.9c6-0.8,11.8,0,17,3.4c0.9,0.6,1.9,0.3,2.8-0.2c1.3-0.8,2.5-1.8,3.7-2.7c1.6-1.2,3.2-2.5,4.8-3.6
		c6.2-4.3,12.6-4.7,19.3-1.4c0.5,0.2,1,0.5,1.6,0.8c-1.7,0.3-3.1,0.7-4.5,1.3c-2.2,1-4.1,2.4-4.7,5c-0.1,0.5-0.5,0.6-0.9,0.6
		c-1,0-2,0-3,0c-0.4,0-0.9,0-1,0.5s0.3,0.7,0.6,0.9c0.8,0.6,1.7,1.1,2.5,1.9c-0.6,0.3-1.1,0.5-1.7,0.7c-1,0.4-1.5,1.2-1.5,2.3
		c0,1.8,0.3,3.6,0.7,5.3c0,0.2,0.1,0.4,0.1,0.6c0.1,0.9,0.1,1-0.9,1c-0.5,0-1-0.1-1.2,0.4c-0.3,0.5,0.2,0.9,0.4,1.2
		c0.5,0.7,1,1.3,1.3,2.1c0.2,0.6,0.1,1.2-0.4,1.6c-1.6,1.2-3.2,2.3-4.9,3.3c-0.7,0.4-1.3,0.3-1.9-0.4s-1-1.6-1.3-2.5
		c-0.3-1-0.5-2-0.9-3c-0.6-1.4-0.7-2.7-0.7-4.2c0-0.8,0.3-1.4,0.6-2.1c0.6-1.5,1.1-3,0.7-4.6c-0.2-1-0.6-1.9-1.3-2.8
		c-0.3-0.4-0.3-0.7,0-1c3.9-5.6,9-9.3,16.2-9.1c1.3,0,2.6,0.3,3.8,0.6c0.3,0.1,0.6,0.3,0.9,0.1c-0.9-0.7-1.8-1-2.8-1.2
		c-3.7-0.8-7.2-0.3-10.5,1.4c-3.5,1.8-6.2,4.4-8.4,7.6c-0.5,0.7-0.6,1.4-0.1,2.1c1.3,1.9,1.4,4,0.4,6.1c-0.4,0.8-0.7,1.5-0.8,2.4
		c-0.3,0-0.3-0.4-0.6-0.5c-0.2,0.1-0.1,0.2-0.1,0.4c0.6,2.2,1.3,4.3,1.8,6.5c0.5,2,1.1,4,1.4,6.1c0.3,1.9-0.1,3.6-1,5.2
		c-0.6,1-1.3,2-2.2,2.8c-0.2,0.3-0.2,0.3-0.7,0.8 M76.9,62c-1.6,0.6-3.2,0.8-4.8,1c-3,0.3-5.8-0.3-8.3-2.2c-1-0.8-1.8-1.8-2.6-3.2
		c-0.1,2.2,2.3,4.8,5.3,5.9C70,64.8,75.2,64.1,76.9,62z M87.8,58c3.4-3.2,4-7.4,3.7-11.8C91.4,50.5,90.1,54.4,87.8,58z M83.2,35.3
		c0.2,0.2,0.4,0.3,0.6,0.3c0.1,0,0.2,0,0.3-0.1c0.5-0.2,1-0.3,1.6-0.4c0.2,0,0.4-0.1,0.6-0.1h0.1c0.2,0,0.6-0.1,0.9-0.4
		c0.1,0,0.2,0.1,0.3,0.1c0.4,0,0.7-0.2,0.9-0.6c0.2-0.4,0-0.9-0.1-1.1c-0.3-0.5-0.8-0.8-1.4-0.8c-0.1,0-0.3,0-0.4,0
		c-1.4,0.3-2.6,1-3.4,2.1C83,34.7,83,35.1,83.2,35.3z M77.6,31.1c1.1-2.2,2.7-3.6,4.7-4.5C79.9,26.6,78,28.3,77.6,31.1z M77,37.6
		c2.1,1.7,3.6,4.1,5.4,6C81.8,40.5,79.7,38.8,77,37.6z M73,26c0.1-1.6,0.3-3.3,0.4-4.9C72.6,22.7,72.5,24.3,73,26z M64.7,25.4
		c1,1.7,1.6,3.4,2.3,5.2C67.4,28.5,66.3,26.2,64.7,25.4z M59.2,31.8c0,0.4,0.3,0.7,0.7,0.7c1.3,0.2,1.9,1.2,2.6,2.3l0.2,0.2
		c0.1,0.2,0.4,0.4,0.7,0.4h0.1c0.3,0,0.5-0.2,0.6-0.5c0.4-1.4,0.1-2.6-1.1-3.5c-0.5-0.4-1.2-0.6-1.9-0.6c-0.4,0-0.8,0.1-1.3,0.2
		C59.4,31.1,59.2,31.5,59.2,31.8z M66.7,54.9c0.8-0.2,1.6-0.2,2.4,0.1c1.3,0.5,2.7,0.9,4,0.5c1.5-0.4,3-0.4,4.5-0.6
		c1.9-0.3,3.7-0.8,5-2.3c0.5-0.5,0.8-1.2,1.7-0.8c0.1,0.1,0.3,0,0.3-0.1s0-0.2-0.1-0.2c-0.4-0.6-1.6-0.6-2,0c-1.5,2.3-4,2.4-6.5,2.9
		c0.2-0.2,0.2-0.3,0.3-0.4c2.6-2.5,3.3-5.7,2-9.1c-0.9-2.2-2.5-3.8-4-5.5c-2-2.1-4.5-2.8-7.3-2.5c-1.5,0.2-2.9,0.8-3.8,2.1
		c-1.9,2.5-3.3,5.3-4.2,8.3c-0.2,0.8-0.2,1.6-0.2,2.6c-1-1-1.4-2.3-2.1-3.4c0.2,1.7,0.6,3.3,2.1,4.4c0.2,0.1,0.3,0.3,0.4,0.5
		C60.6,54.2,63.7,55.7,66.7,54.9z M51,65.1c-0.6,0.2-1.3,0.1-1.9,0.3c2.3,2.2,4.2,4.8,5.9,7.4c0.3,0.4,0.6,0.5,1,0.6
		c2.2,0.2,4.3,0.6,6.4,1.1c3,0.7,6,1.6,8.8,2.8c0.1-0.1,0.1-0.1,0.2-0.2c-0.6-0.5-1.2-1-1.7-1.6c-2.5-2.9-4.8-5.9-5.8-9.7
		c-0.1-0.3-0.3-0.5-0.5-0.6c-2.2-1.6-3.8-3.6-4.9-6.1c-0.3-0.6-0.5-0.7-1.1-0.4c-2.8,1.3-5.3,3-7.7,4.9c-0.1,0.1-0.2,0.2-0.2,0.3
		c0.5,0.1,1,0.3,1.5,0.4c0.2,0.1,0.5,0.1,0.5,0.5C51.6,65.1,51.2,65.1,51,65.1z M61.5,52.9c-1.3-1-1.8-2.4-1.8-4
		c0-2,0.7-3.8,1.6-5.4c0.6-1.2,1.3-2.3,2-3.4c1.5-2.2,3.6-2.9,6.1-2.5c1.9,0.3,3.5,1.1,4.7,2.6c1.4,1.7,3.1,3.3,3.7,5.6
		c0.9,2.9,0,6.1-2.3,7.8c-1.4,1.1-3,1.5-4.7,1.1c-0.1,0-0.3,0-0.4-0.1C69,54.2,67.6,54,66,54.3C64.3,54.6,62.8,53.9,61.5,52.9z
		 M73.8,48.8c-0.2-0.8-0.5-1.4,0-1.9c0.8-0.8,0.7-0.3,0.8-1.2C74,45.4,73.4,45,73,44.3c-0.5-0.8-0.8-0.5-1.2,0.1
		C71,46.2,71.7,47.9,73.8,48.8z M63.9,48c2.1-0.9,2.9-2.6,1.9-4.3c-0.3-0.6-0.7-0.9-1.2-0.1c-0.4,0.7-1,1.1-1.6,1.4
		c0.2,0.9,0,0.4,0.8,1.2C64.4,46.6,64.1,47.2,63.9,48z M53,75.2c2.7,4.6,5,9.4,6.9,14.3c1.8,4.6,3.3,9.3,4.1,14.2
		c0.3,2.1,0,3.8-1.8,5.3c-5.2,4.3-11.1,7.3-17.6,9c-1.3,0.4-1.3,0.3-1.3,1.7c0,0.5,0.2,0.7,0.6,0.8c0.9,0.2,1.7,0.4,2.6,0.6
		c0.5,0.1,0.9,0.2,1.3,0.6c0.8,0.7,1.6,1.2,2.7,1.3c0.4,0,0.8,0,1.1,0.3c-0.2,0.3-0.5,0-0.7,0.3c1.3,1.4,3.1,1.9,4.9,2.5
		c0,0.1-0.1,0.1-0.1,0.2c-0.3,0-0.5-0.1-0.8-0.1c0.9,0.7,1.8,1.5,3,1.7c0.3,0,1,0.2,0.8,0.4c-0.4,0.5,0.1,0.4,0.2,0.5
		c0.7,0.5,1.7,0.5,2.4,1c1.7,1.1,3.6,1.6,5.5,2.1c1.3,0.4,2.7,0.5,4.2,0.5c1.3,0,1.3,0,1.7-1.2c0.2-0.6,0.1-0.8-0.4-1.1
		c-3.3-1.9-6.5-4-9.5-6.4c-0.8-0.6-0.8-1.1-0.1-1.8c0.7-0.7,1.3-1.5,2-2.2c3.6-4.3,6.3-9.1,9-14c0.5-0.9,0.5-0.9-0.6-0.8
		c-1.8,0.1-3.6,0.2-5.3,0.3c-0.7,0-1.2-0.2-1.3-1c-0.2-1.2-0.6-2.3-0.9-3.4C62.8,89.7,58.3,79.3,51.5,70c-1.1-1.5-2.2-2.9-3.6-4.1
		c-0.4-0.4-0.9-0.6-1.5-0.4c0,0.2,0.1,0.3,0.2,0.4C49,68.8,51.1,71.9,53,75.2z M112.7,67.8c0.1-0.2,0.2-0.4-0.1-0.5
		c-0.8-0.2-1.6-0.5-2.5-0.7c0.5,1.4,0.9,2.7,1.4,4.2C111.9,69.7,112.3,68.8,112.7,67.8z M51.5,111.7c-0.7-0.9-1.7-1.6-2.5-1.6
		C49.3,111.2,50.5,111.9,51.5,111.7z M109.2,80c2-3.7,3.9-7.6,4.7-11.8c0.1,0,0.2,0,0.2,0c4,3.5,8.4,6.6,12.5,10
		c1.9,1.6,3.8,3.2,5.5,5c0.3,0.3,0.5,0.6,0.4,1.2c-0.8,5.9-3,11.2-5.6,16.5c-1.8,3.5-3.7,6.8-5.9,10c-3.4,4.9-7.3,9.4-12,13
		c-0.9,0.7-2,1.3-2.9,2c-0.3,0.2-0.5,0.2-0.8,0c-6.1-4.2-12.9-7.1-19.7-9.8c-0.3-0.1-0.6-0.2-1-0.4c1.8-1.9,3.4-3.7,4.9-5.7
		C96.6,100.4,103.4,90.6,109.2,80z M112.8,84.2c-4.5,7.5-8.8,15.1-13.9,22.2C104.9,99.9,108.8,92,112.8,84.2z M93.8,55.6
		c-2.4,2.6-5,5.2-7.7,7.4c-4.9,4-10.5,5.6-16.8,4.5c-1.7-0.3-3.3-0.8-5.1-1.7c0.3,0.5,0.5,0.8,0.6,1.1c2,3.1,4.2,6,6.5,8.8
		c1.3,1.5,2.5,3.1,4.4,4c0.3,0.1,0.5,0.3,0.7,0.8C69.9,78,63.3,76,56.5,75c0,0.1,0,0.2,0,0.2c0.1,0.2,0.2,0.4,0.3,0.6
		c3.5,6,6.3,12.3,8.4,18.9c0.9,2.8,1.6,5.6,2,8.5c0,0.2-0.1,0.7,0.4,0.6c2.3-0.4,4.6-0.4,6.9-0.5c0.3,0,0.6-0.1,0.7-0.4
		c1.4-2.8,3.2-5.4,3.8-8.6c0.1-0.3,0.1-0.6,0.5-0.7s0.6,0.2,0.8,0.5c1,1.1,2,2.3,3.1,3.4c0.2,0.2,0.3,0.5,0.6,0.5
		c-0.3-3.4-0.7-6.8-1.4-10.2c0.3,0.1,0.3,0.4,0.4,0.6c1.2,3.1,1.9,6.3,1.7,9.7c0,0.6,0.1,1,0.6,1.4c0.9,0.7,1.7,1.5,2.5,2.3
		c1,1.1,2.1,1.5,3.6,1.4c0.6-0.1,1-0.2,1.4-0.7c1.5-2.2,3.1-4.4,4.6-6.6c4.5-6.6,8.9-13.3,12.4-20.6c0.3-0.7,0.7-1.4,0.9-2.1
		c0.3-0.7,0-1.2-0.7-1.1c-9.9,1.2-19.5,3.7-28.5,7.9c-0.5,0.2-1.1,0.4-1.7,0.1c2.2-2,4.7-3.8,6.7-6s3.8-4.6,5.6-6.9
		c-1.4,3.5-3.6,6.4-6,9.1c0.3,0.1,0.5,0,0.7-0.1c4.3-1.7,8.7-2.8,13.2-3.6c3.3-0.6,6.5-1,9.8-1c0.7,0,0.8-0.2,0.6-0.8
		c-0.2-0.7-0.4-1.4-0.6-2c-0.7-2.2-0.7-2.2-3-2.7c-0.7-0.1-1.3-0.4-1.8-1c-2.9-3.4-6.2-6.4-9.6-9.2C94.5,55.1,94.3,55.1,93.8,55.6z
		 M40.8,149.5c-6.1-0.2-11.9-1.7-17.3-4.4c-4-2-8-3.8-12.3-5.1c-1.2-0.4-2.3-0.8-3.4-1.5c-0.9-0.6-1.5-1.4-1.6-2.5
		c-0.2-1.8,0.2-3.5,0.6-5.4c0.6,0.8,1,1.6,2,2.2c-0.4-0.9-0.7-1.7-1.1-2.5c-1.2-2.2-1.5-4.7-1.8-7.2c-0.9-6.9,0.6-13.2,3.9-19.2
		c1.6-2.8,3.2-5.6,4.8-8.5c0.6-1.1,1.1-2.3,1.7-3.7c0.3,4.1,1.4,7.7,3.1,11.3c0.2-0.3,0.1-0.6,0.1-0.8c-0.8-2.2-0.7-4.5-1-6.8
		c-0.4-3.2-0.6-6.3-0.6-9.6c0.1-6.4,2.8-11.5,8-15.1c5.3-3.7,11.2-5.4,17.6-5.5c1.4,0,2.2,0.3,3,1.5c1.3,2.1,2.7,4.1,4,6.3
		c-2.3,0.2-4.4,0.2-6.5,0.8c0.6,0,1.1,0.1,1.7,0.1c1.6,0.1,3.2,0.2,4.9,0.2c0.5,0,0.8,0.1,1.1,0.6c4.9,8.6,8.9,17.7,11.1,27.4
		c0.3,1.2,0.1,2.5,0.1,3.7c0,0.5-0.3,0.7-0.6,0.9c-4,3.6-8.6,6.2-13.7,8.2c-1.6,0.6-3.3,1.1-4.9,1.7c-0.5,0.2-0.7,0.1-0.9-0.5
		c-0.4-1.3-0.9-2.5-1.7-3.5c-0.3-0.4-0.2-0.6,0.1-1c1.7-1.7,3.2-3.5,4.6-5.5c3-4.5,4.6-9.3,4.2-14.8c-0.2-2.4-0.7-4.8-2-6.9
		c-0.1-0.1-0.1-0.3-0.4-0.3c0.3,1.3,0.7,2.7,0.8,4c0.9,6.3-0.6,12-4.2,17.2c-1.5,2.1-3.2,4-5,5.8c-0.3,0.3-0.5,0.3-0.8,0.1
		c-0.5-0.2-0.9-0.4-1.5-0.5c1,1.5,2.7,2.3,3.5,4c0.8,1.6,1.2,3.4,1.7,5.2c-3.1-0.5-6.1,0.1-9.2,0.1c1.4-4.7-3.4-11.3-8.1-12.1
		c0.5,0.3,0.9,0.5,1.2,0.7c4,2.5,6,6.1,6.4,10.7c0,0.5-0.1,0.7-0.6,0.8c-0.9,0.1-1.8,0.3-2.8,0.4c-0.4,0.1-0.9,0.2-1.3,0.6
		c0.7,0.4,1.5,0.1,2.3,0.3c-2.1,1.7-3.4,3.7-3,6.4c0.4-2.2,1.7-4,3.3-5.5c1.1-1,1.4-1.1,3.1-0.9c-3,2.2-4.7,4.9-4.3,8.7
		c0.3-0.8,0.4-1.7,0.7-2.6c0.8-2.3,2.3-4.1,4.3-5.5c0.8-0.5,1.5-0.8,2.5-0.8c1,0.1,2,0,3,0.1c-2.1,1.1-3.9,2.4-5.1,4.4
		c-1.3,1.9-2,4-1.5,6.4c0.2-0.8,0.4-1.7,0.7-2.5c1.2-3.5,3.5-5.9,6.9-7.5c2.2-1,4-0.2,6.2,0.7c-3.8,1.1-6.7,2.9-8.6,6.2
		c-0.7,1.2-1.1,2.5-1.1,3.9c0.6-1.4,1.2-2.8,2.2-4c2-2.6,4.6-4.3,7.7-5.3c0.7-0.2,1.2-0.2,1.8,0.2c0.6,0.4,1.2,0.7,1.8,1.2
		c-5,1.4-8.2,4.5-9.3,9.6c0.7-1.5,1.6-3,2.7-4.3c1.8-2.1,4-3.6,6.7-4.4c0.7-0.2,1.3-0.2,1.8,0.3c0.5,0.4,1.1,0.8,1.8,1.2
		c-4.5,1.6-7.1,4.9-8.2,9.3c0.4-0.7,0.8-1.5,1.2-2.2c1.5-2.3,3.3-4.3,5.8-5.7c1.4-0.8,2.7-1.1,4,0.4c-3.7,1.9-5.4,5.1-5.9,9.1
		c0.2-0.6,0.4-1.1,0.7-1.7c1-2.3,2.4-4.4,4.5-5.9c1.6-1.2,2-1.2,3.8,0.1c-3.2,1.6-5.5,3.9-6.3,7.4c1.3-2.8,3.5-4.8,6.1-6.4
		c1-0.6,1.9-0.6,2.8,0.1c-2.3,1.4-4.3,3.1-5.3,5.8c0.3-0.1,0.4-0.3,0.5-0.5c1.4-2,3.3-3.5,5.4-4.8c0.7-0.4,1.2,0.1,1.9,0.3
		c-2.7,1.5-4.8,3.3-5.5,6.3c0.4,0,0.4-0.3,0.5-0.4c1.4-2.2,3.2-4,5.4-5.3c0.4-0.3,0.8-0.3,1.3-0.2c1.5,0.3,3,0.5,4.5,0.3
		c0.9-0.1,1.6-0.5,2.1-1.3c0.6-1,1.1-2.2,1.5-3.3c0.5-1.3,1.4-2.1,2.8-2.4c2.1-0.4,4-1.2,5.8-2.4c2.2-1.4,4.3-1,6.3,0.4
		c2.1,1.4,3.3,3.3,3,5.9c0,0.2-0.1,0.4-0.2,0.7c-3.2-3.2-7-4.2-11.3-3.6c0.9,0.1,1.8,0.3,2.6,0.4c2.8,0.5,5.1,1.8,7.2,3.6
		c0.5,0.5,1,1.1,1.3,1.7c0.4,0.8,0.5,1.6,0.1,2.5c-0.5,1-1,2-1.6,3.2c-2.3-5.2-6.7-6.4-11.5-7c0.2,0.4,0.5,0.4,0.8,0.5
		c2.7,0.9,5.2,2.2,7.4,4.1c0.7,0.6,1.2,1.3,1.7,2c1.4,1.9,0.4,4.7-1,5.7c-0.5,0.3-0.8,0.6-1-0.3c-0.4-1.4-1.3-2.4-2.4-3.2
		c-1.8-1.3-3.9-2.2-6-2.8c-0.2-0.1-0.5-0.2-0.8,0c0.3,0.4,0.8,0.6,1.2,0.8c1.6,0.9,3.3,1.7,4.7,2.9c1.2,1,2,2.2,2.3,3.7
		c0.2,0.8,0,1.4-0.6,1.9c-0.4,0.3-0.7,0.6-1.1,0.9c-0.4,0.3-0.8,0.6-1.2,0.6c-0.5,0-0.5-0.7-0.7-1c-0.7-1.1-1.8-1.7-3.1-2
		c-0.8-0.2-1.4,0.1-1.9,0.7c-0.4,0.5-0.7,0.9-1.1,1.4c-1.1,1.3-2.4,1.8-4,1.3c-5.6-1.5-11.3-1.5-17-1
		C50.8,149,45.8,149.7,40.8,149.5z M69.4,143.3c0-3.2,0.8-6,2.3-8.7C69.1,136.4,67.8,141.3,69.4,143.3z M67.9,144.5
		c-0.2-2.6-0.1-5.1,0.6-7.6C67,139,66.6,142.8,67.9,144.5z M66.2,143c0-1,0-2,0.1-3s0.5-1.9,0.8-3C65.5,138.7,65.1,142,66.2,143z
		 M49,113.6c-1.2-1-2.5-2-3.1-3.6c-0.3,1.5,1.3,3.8,2.8,4.1c0.2,0.1,0.5,0.1,0.6-0.1C49.4,113.8,49.2,113.7,49,113.6z M49.3,109.3
		c-0.4-0.1-0.7-0.1-1,0.3c-0.2,0.3-0.2,0.7,0,1c0.6,1.1,1.6,1.7,2.8,1.9c0.5,0,0.9,0,1.1-0.5c0.2-0.4,0-0.8-0.2-1.1
		C51.3,110.1,50.4,109.6,49.3,109.3z M10.6,122c-1.2-3.2-1.5-6.4-0.4-9.8C8.5,113.9,8,120.2,10.6,122z M24.1,104.2
		c3.8-0.8,7.5-1.6,11.1-2.9c2.5-0.8,4.8-2,6.8-3.8c0.3-0.3,0.6-0.5,0.8-1.1c-1.8,1.3-3.6,2.1-5.4,2.8c-3.5,1.3-7,2.3-10.5,3.6
		C25.9,103.2,24.9,103.6,24.1,104.2z M37,145.1c-3.3-1-6.5-2.1-9.7-3.5s-6.2-3.1-9.2-5.2C20.4,140,31.7,145.2,37,145.1z M93.9,131.9
		c-0.3,0.7-0.3,1.1,0.2,1.8c1.5-3.2,3.4-6.1,4.9-9.1c0.2-0.4,0-0.5-0.3-0.7c-1-0.5-2-1-2.9-1.5c-0.4-0.2-0.6-0.2-0.9,0.2
		c-0.5,0.9-1.1,1.8-1.6,2.7c-0.3,0.4-0.3,0.7,0,1.2C94.3,128.2,94.7,130,93.9,131.9z M133.6,134.8c1-2.3,1.4-4.8,1.4-7.3
		c0-0.7-0.3-1.3-0.6-1.9c-0.2-0.4-0.5-0.8-0.9-1.4c1.4,0.5,2.7,0.9,3.8,1.7c0.6,0.4,1,0.9,1.1,1.6c0.6,3.5,0.6,6.9-1.6,9.9
		c-0.9,1.3-2,2.3-3.6,2.5c-1.3,0.2-2.2-0.4-2.4-1.5c-0.1-0.3,0-0.5,0.3-0.6C132.3,137.2,133.1,136.1,133.6,134.8z M161.1,147.3
		c0.7,1.5,0.1,2.5-1,3.6c-3.6,3.7-7.8,6-12.8,6.9c-4.3,0.8-8.1-0.1-11.2-3.4c-2-2.1-3.9-4.3-6.1-6.1c-0.9-0.7-1.9-1.5-2.8-2.3
		c0.4,0.1,0.7,0.3,1.1,0.4c0.4,0.1,0.7,0.2,1.1,0.3c1.3,0.2,2.6,0.3,3.5-1c0.9-1.2,0.4-2.4-0.3-3.6c-0.1-0.2-0.2-0.3-0.4-0.6
		c1,0,1.8-0.1,2.6-0.4c0.6-0.2,0.9,0.3,1.1,0.7c0.7,2,2.2,2.6,4.1,1.5c1.5-0.9,2.7-2.1,3.5-3.7c0.3-0.5,0.4-0.5,0.9-0.2
		c0.3,0.2,0.6,0.3,0.9,0.4c1.9,0.7,2.7,0.4,3.8-1.5c1-1.8,0.7-3.1-0.8-4.1c-1.4-1-2.9-1.6-4.5-2.1c-0.5-0.2-0.7-0.3-0.7-0.9
		c0-0.7-0.1-1.4-0.4-2.1c-0.3-0.7-0.7-1.4-1.3-1.6c-1.3-0.4-2-1.3-2.7-2.4c-0.4-0.6-1.1-0.9-1.8-1.2c-1.5-0.7-3-1.2-4.7-1.2
		c-0.5,0-0.7-0.4-1-0.7c1.7,0,3.3-1,4.9,0.3c1.2,1,2.5,1.7,3.6,2.7c-0.7-1.7-2.1-2.8-3.7-3.8c0.5-0.3,0.9-0.2,1.3,0
		c2.6,1.1,4.6,3,6.5,5c0.6,0.7,1.1,1.4,1.8,2.1c-1.4-3.3-3.6-6-6.9-7.8c0.6-0.4,1.1-0.3,1.6,0c3.1,2,5.4,4.8,7.1,8.1
		c0.2,0.3,0.3,0.6,0.5,0.9c0.2-2.5-2.7-6.6-6.8-9.7c1.1-0.7,1.4-0.7,2.4,0.1c2.8,2.2,4.7,5,6,8.3c0.1,0.3,0.2,0.6,0.4,0.9
		c-0.4-4.3-2.5-7.5-5.8-10.1c1.2-0.7,1.8-0.6,2.7,0.3c2,2,3.5,4.3,4.5,6.9c0.2,0.4,0.3,0.8,0.5,1.2c0.2-2.3-1.1-5-4.3-9
		c1-0.1,1.9,0,2.5,0.8c2,2.3,3,5.1,3.7,8c0.1,0.3,0,0.6,0.3,0.8c0.2-1.5,0-2.8-0.3-4.2c-0.3-1.3-0.9-2.6-1.6-3.8
		c1,0.7,2.1,1.3,2.6,2.5c1.2,2.5,1.8,5.1,2,7.8c0.6-1.9,0.4-3.8-0.1-5.9c2.2,2.2,1.6,4.9,2.1,7.5c0.4-0.9,0.4-1.8,0.5-2.8
		c1.4,2.9,1.6,6.1,1.9,9.3c0.3,3.3-0.6,6.3-1.7,9.4C160.3,148.2,160.6,147.6,161.1,147.3z M150.3,153.8c-2,0.1-3.6-0.5-5.2-1.2
		c-1.6-0.7-3.1-1.7-4.6-2.9C142.8,153.4,146.9,155.6,150.3,153.8z M130.8,145.3c0.9-0.1,1.3-0.6,1.1-1.5c-0.1-0.6-0.4-1.2-0.8-1.7
		c-0.7-1-1.6-1.8-2.4-2.7c-0.4-0.4-0.8-0.6-1.3-0.6c-1.3,0.1-2.1-0.5-2.6-1.7c-0.2-0.5-0.5-1.1-0.4-1.7c0-1-0.5-1.6-1.4-1.8
		c-0.1,0-0.2-0.1-0.3-0.1c-2-0.8-1.4-1.1-2.3,1c-0.3,0.7,0.1,1.5,1,2c0.7,0.4,0.6-0.4,0.9-0.6c0.1-0.1,0.2-0.2,0.3-0.3
		c0.3-0.2,0.7-0.5,1-0.3s0,0.7-0.2,1c-0.1,0.3-0.4,0.6-0.5,0.8c-0.6,0.9-0.7,1.9-0.3,3c0.5,1.4,3.9,3.1,4.3,3.4
		c0.8,0.6,1.7,1.2,2.7,1.6C130,145.3,130.4,145.3,130.8,145.3z M164.4,154.3c-4.1,4.8-9.7,7.9-16.6,9.1c-1.2,0.2-2.4,0.3-3.5,0.3
		c-2.7,0-5.3-0.6-7.6-1.8c0.2,0.4,1.3,2.5,1.7,3.2c2.5,4.6,5,9.5,7.1,14.5c1.3,3.2,2.2,6.4,2.8,8.8c0.2,0.7,0.2,1.4,0.2,1.9v0.2
		c0.1,2.6-1.5,3.8-2.2,4.3c-0.7,0.4-1.4,0.6-2.2,0.6c-0.6,0-1.3-0.1-2-0.5c-1,0.1-2.1,0.4-3.5,1c-0.6,0.3-1.2,0.6-1.8,0.9
		c0.5,3.1,1.1,6.4,1.1,9.8c0.1,2.9-0.2,5.7-0.9,8.7c-0.1,0.5,0.1,1.5,0.2,2.4c0,0.2,0.1,0.4,0.1,0.6c0.2,1.3,0.5,2.6,1,4.4
		c0.9,3.4,0.8,6.8-0.3,10.2c-0.1,0.3-0.2,0.5-0.2,0.8c-0.1,0.5-0.3,1-0.5,1.6c0.2,0.3,0.3,0.7,0.5,0.9c2.9,4.4,3.6,9.4,2.2,14.9
		c-0.5,2-0.8,3.7-0.4,5.1c0.6,2.4,1.4,4.2,2.6,5.6c1.3,1.5,2.4,3,3.4,4.4c0.9,1.3,1.5,2.6,2,3.9c1.1,3.3-0.2,6.3-3.3,7.8
		c-1.8,0.9-3.6,1.2-4.9,1.4c-2.9,0.4-5.5,0.5-7.9,0.5c-1.9,0-3.7-0.1-5.4-0.3c-0.7-0.1-1.4-0.2-2.1-0.4c-3.2-0.9-4.9-3.7-4.2-6.9
		c0.2-0.8,0.4-1.6,0.6-2.2c0.2-0.7,0.4-1.3,0.5-1.8c0.3-1.8,0.1-3-0.4-4.2c-0.9-2-2.2-3.9-3.9-5.9c-0.6-0.7-1.2-1.4-1.8-2.1
		c-0.4-0.5-0.9-1-1.3-1.5c-3.8-4.5-5.1-9.8-3.7-15.5c0.1-0.4,0.2-0.9,0.2-1.5c0,0,0,0,0-0.1l0,0c-1.5-1.3-3.2-2.5-4.9-3.8
		c-0.7-0.5-1.5-1.1-2.2-1.6c-3.3-2.5-6.2-5.6-8.5-9l-0.1-0.1c-2-3-4.1-6.2-6.2-9.3c-0.4,0-0.8,0-1.3,0c-3.1,0-6.3-0.1-9.5-0.4
		c-0.8,1.3-1.6,2.5-2.4,3.6c-0.6,0.8-1.1,1.6-1.6,2.4l-0.1,0.1c-1.3,2-2.7,4.1-4.2,6.1c-2.2,2.9-4.9,5.4-8.7,8.2
		c-0.9,0.6-1.8,1.3-2.7,2c-0.7,0.6-1.5,1.1-2.2,1.7c-0.4,0.3-0.5,0.4-0.3,1.1c0.3,1.6,0.6,3,0.7,4.3c0.3,3.7-0.7,7.2-3.1,10.5
		c-1.3,1.8-2.7,3.5-4.1,5l-0.7,0.8c-1.7,1.9-3,4.2-4,6.9c0,0.2,0,0.9,0.1,1.3c0,0.4,0.1,0.7,0.1,1.1c0,0.6,0.3,1.3,0.5,2.1
		c0.2,0.5,0.3,1.1,0.5,1.7c0.9,3.5-0.9,6.4-4.4,7.3c-1.9,0.5-3.7,0.6-5.3,0.6c-0.7,0-1.5,0-2.2,0c-3.5,0-6.5-0.3-9.4-0.8
		c-1.5-0.3-2.7-0.7-3.8-1.4c-2.5-1.6-3.5-4.3-2.7-7.2c0.7-2.4,2-4.3,3.2-5.9c0.2-0.2,0.3-0.4,0.5-0.6c0.4-0.6,0.9-1.1,1.3-1.6
		c0.6-0.8,1.2-1.5,1.6-2.2c1.6-3,1.9-5.8,1.1-8.9c-0.9-3.2-1.1-6-0.5-8.7c0.3-1.3,0.7-2.6,1.4-4l0.1-0.3c0.3-0.6,0.7-1.4,1.2-2.1
		c0.4-0.6,0.5-1,0.1-1.9c-1.7-4-1.9-8.3-0.6-12.8c0.5-1.8,0.9-3.8,1.1-6.3c0-0.1-0.1-0.3-0.1-0.4c-0.1-0.2-0.1-0.5-0.2-0.7
		c-0.8-3.9-0.8-8.1-0.1-13.2c0.1-0.8,0.2-1.6,0.4-2.5c-1.5-0.4-3.1-0.8-4.8-1.1h-0.2c-2.6,0-3.7-1.6-4.1-2.2
		c-0.4-0.7-1.1-2.4,0.2-4.7c0.3-0.4,0.6-0.8,0.9-1.1c2.2-2,3.3-4.8,4.4-8.4c1.5-5.1,2.2-10.4,2.7-15.4c0.5-4.2,0.7-8.5,0.9-12.7
		c-3.4-1-6.3-2.3-9-3.9c-2.5-1.5-4.7-2.5-7-2.9c-2.2-0.4-4.2-1.3-5.6-2C2,142,0,138.3,0.6,133.5c0.2-1.5,0.5-2.9,0.8-4.1
		c-2.6-9.2-1.7-18.2,2.6-26.7c1.1-2.2,2.3-4.3,3.5-6.3L8,95.5c1.4-2.4,3.1-5.6,4.1-9.1c0.1-0.5,0.2-1.2,0.2-2c0-0.6,0.1-1.2,0.1-1.8
		c0.8-6.7,4.2-12.2,10.1-16.4c6-4.3,12.8-6.4,20.1-6.4c0.5,0,1,0,1.5,0c0.2,0,0.3,0,0.4,0c1,0,1.3-0.2,1.7-0.5
		c1.7-1.6,3.7-3,6.1-4.3c-0.4-0.9-0.8-1.9-1.1-2.9c-0.9-2.8-1.7-6.2-1.2-10c-0.2-0.1-0.3-0.3-0.4-0.4l-0.1-0.1
		c-3.6-3.3-4.4-8.3-2-12.6v-0.1c-1.6-0.9-2.7-2.6-2.9-4.7c-0.2-1.8,0.1-3.4,0.3-4.8c0.1-0.4,0.1-0.9,0.2-1.3
		c0.4-3.4-0.5-5.9-2.6-8.1l-0.2-0.2c-0.5-0.5-1-1-1.5-1.5l0,0c-1.9-1.8-1.7-3.7-1.4-4.7s1.2-2.8,4-3.3h0.1c1-0.2,2.1-0.3,3.3-0.3
		c0.8,0,1.7,0,2.7,0.1c5.7,0.5,10.7,3.3,15.2,8.6l0.1,0.2c1.1,1.3,2.2,2.6,3.2,4.2c2-0.5,4.1-0.7,6.2-0.7c4.2,0,8.5,1,13,2.9
		c0.4,0.2,0.9,0.4,1.3,0.7c1.7-1.4,3.5-2.8,5.3-4.2c2.8-2.1,6.7-4.6,11.7-5.4c1.2-0.2,2.4-0.3,3.6-0.3c4.8,0,9.4,1.5,13.7,4.5
		c0.2,0.1,0.4,0.3,0.6,0.5l0.1,0.1c1.7,1.3,2.3,2.9,2,4.8c-0.1,0.6-0.8,3.5-4.5,3.6c-1.6,0.4-3.2,0.8-4.4,1.5
		c-1,0.6-1.3,1.1-1.5,1.4c-0.3,0.8-0.9,1.8-2,2.7c0,0.2,0,0.3,0,0.4c-0.2,1.1-0.8,2.5-2.7,3.5c0.1,0.8,0.3,1.7,0.4,2.6l0.1,0.7
		c0,0.1,0,0.2,0.1,0.3c0.3,1.9,0.1,3.5-0.7,4.7c0.9,2.7,0.1,5.2-2.2,7.1c-1.6,1.3-3.2,2.5-4.9,3.5c-0.4,0.2-0.7,0.4-1.1,0.6v0.1
		c-0.2,1.5-0.7,3-1.5,4.4c2.5,2,5,4.4,7.6,7.3c8.7,2.1,17.7,5.3,26.5,9.3c5.5,2.5,9.6,5.7,12.6,9.6c3.9,5.2,5.9,11.4,5.8,18.3
		c0,0.2,0,0.6-0.1,1.1c0.1,0.2,0.2,0.4,0.3,0.6s0.2,0.3,0.3,0.5c3.9,7.3,6.1,13.2,7.2,19.2c0,0.2,0.1,0.3,0.1,0.4
		c0.2,0.4,0.4,0.9,0.6,1.3c0.4,0.9,0.8,1.8,1.2,2.6c2.8,4.9,4.1,10.4,4,16.9c0,0.8,0,1.5-0.1,2.2c-0.1,1.5-0.1,3,0.1,4.2
		C167.6,150.6,165.4,153.1,164.4,154.3z M163.1,147.4c-0.4-2.4-0.1-4.8-0.1-7.2c0-5.3-0.9-10.3-3.5-15c-0.8-1.3-1.3-2.8-2-4.2
		c-0.2-0.4-0.3-0.9-0.4-1.3c-1.1-6.4-3.7-12.4-6.8-18.1c-0.7-1.3-1.5-2.4-1-3.9c0-0.1,0-0.1,0-0.2c0.1-5.9-1.5-11.3-5-16
		c-2.9-3.9-6.8-6.5-11.1-8.5c-8.4-3.9-17.1-7-26.1-9.2c-0.6-0.1-1-0.4-1.4-0.8c-3-3.3-6.1-6.4-9.8-8.9c-0.5-0.3-0.4-0.5-0.1-0.9
		c1.3-1.6,2.3-3.3,2.6-5.4c0.2-1,0-2-0.1-3c1.1,0.4,2,0.2,2.9-0.4c1.6-1,3.1-2.1,4.5-3.2c1.3-1,1.4-2,0.8-3.4
		c-0.3-0.7-0.7-1.3-1.1-1.9c1.8-0.3,2.2-1,1.9-2.8c0-0.1,0-0.1,0-0.2c-0.3-1.5-0.6-3-0.7-4.6c-0.1-2-0.2-2,1.7-2.7
		c1.3-0.5,1.4-1.2,0.3-2.1c-0.6-0.5-1.2-0.9-2-1.4c1-0.1,1.9,0.2,2.8,0.1c1-0.1,1.8-0.5,2.2-1.5c0.6-1.5,1.8-2.6,3.2-3.4
		c1.8-1,3.7-1.4,5.6-1.9c0.5-0.1,1.2,0.1,1.3-0.5c0.1-0.6-0.5-0.9-0.9-1.3l-0.1-0.1c-4.4-3-9.2-4.4-14.6-3.6c-3.8,0.6-7,2.4-10,4.7
		c-2.5,1.8-4.8,3.8-7.2,5.8c-0.2,0.1-0.3,0.5-0.6,0.1c-0.7-0.9-1.6-1.5-2.6-1.9c-6.2-2.7-12.6-3.6-19.2-1.3
		c-0.3,0.1-0.5,0.3-0.6-0.2c-0.8-2.4-2.5-4.3-4-6.2C58.6,7,54.7,4,49.4,3.6c-1.7-0.1-3.3-0.2-5,0.1c-0.4,0.1-0.9,0.1-1.1,0.6
		c-0.1,0.4,0.3,0.7,0.5,1c0.5,0.6,1.1,1.1,1.6,1.6c3.1,3.1,4.2,6.9,3.7,11.2c-0.2,1.8-0.6,3.5-0.4,5.3c0.1,1.5,1.1,2.2,2.6,1.7
		c0.3-0.1,0.7-0.2,1.1-0.4c-0.3,0.5-0.5,0.9-0.7,1.3c-0.2,0.5-0.1,0.9,0.5,0.9c0.8,0,0.7,0.4,0.5,0.8C52,29.1,51.5,30,51,30.9
		c-1.5,2.7-1.1,5.8,1.2,7.9c0.6,0.6,1.3,1.2,2.4,1.1c-1.3,3.8-0.7,7.4,0.4,11c0.6,1.8,1.3,3.5,2.2,5.2c0.3,0.6,0.2,0.8-0.4,1
		c-2.8,1.3-5.6,2.9-7.8,5c-1.5,1.4-3,1.6-4.9,1.5c-7-0.3-13.5,1.6-19.2,5.7c-4.7,3.4-7.8,7.8-8.5,13.7c-0.2,1.4-0.1,2.9-0.5,4.3
		c-1,3.6-2.6,6.8-4.4,10c-1.4,2.3-2.7,4.6-3.9,7.1c-4,7.9-4.7,16-2.2,24.4c0.1,0.3,0.1,0.6,0,0.9c-0.3,1.4-0.7,2.8-0.9,4.2
		c-0.4,3.1,0.7,5.3,3.6,6.6c1.5,0.7,3.1,1.4,4.7,1.7c3,0.6,5.7,1.8,8.3,3.4c3.1,1.9,6.6,3.2,10.1,4.1c0.7,0.2,0.8,0.4,0.8,1.1
		c-0.2,5.1-0.4,10.1-1,15.2c-0.6,5.4-1.3,10.8-2.8,16.1c-1.1,3.8-2.5,7.4-5.5,10.2c-0.1,0.1-0.1,0.1-0.2,0.2
		c-0.4,0.7-0.2,1.1,0.6,1.1c0.2,0,0.4,0,0.7,0c2.8,0.5,5.5,1.1,8.1,2c0.4,0.1,0.6,0.3,0.5,0.8c-0.3,1.7-0.6,3.5-0.9,5.2
		c-0.6,4-0.7,7.9,0.1,11.9c0.1,0.7,0.4,1.4,0.3,2.1c-0.2,2.4-0.6,4.9-1.3,7.2c-1.1,3.4-1,6.8,0.4,10.1c0.9,2,0.7,3.8-0.5,5.6
		c-0.4,0.6-0.7,1.2-1,1.9c-0.5,1-0.9,2-1.1,3c-0.5,2.3-0.2,4.6,0.4,6.9c1.2,4.1,0.7,8-1.4,11.8c-0.9,1.6-2.1,2.9-3.2,4.3
		c-1.2,1.7-2.5,3.3-3.1,5.3c-0.4,1.2,0,2.2,1,2.8c0.8,0.5,1.6,0.7,2.5,0.9c3.6,0.7,7.1,0.8,10.7,0.7c1.5,0,3-0.1,4.4-0.5
		c1.5-0.4,2-1.2,1.7-2.7c-0.4-1.5-1-2.9-1.1-4.5c-0.1-1.3-0.5-2.7,0-4c1.1-3,2.6-5.8,4.7-8.2c1.6-1.8,3.2-3.6,4.6-5.5
		c1.7-2.4,2.6-5,2.4-8c-0.1-1.3-0.3-2.5-0.6-3.7c-0.4-2,0-3.7,1.8-5c1.7-1.2,3.3-2.5,4.9-3.7c3-2.1,5.7-4.5,7.9-7.4
		c1.5-1.9,2.8-4,4.1-6c1.7-2.6,3.6-4.9,5-7.7c0.2-0.3,0.4-0.2,0.6-0.2c4.6,0.5,9.3,0.7,13.9,0.6c0.4,0,0.6,0.1,0.9,0.5
		c2.4,3.6,4.8,7.1,7.1,10.7c2.1,3.1,4.6,5.8,7.6,8.1c2.4,1.8,4.9,3.6,7.3,5.6c1,0.9,1.5,2,1.3,3.4c-0.1,0.7-0.2,1.4-0.3,2
		c-1.1,4.5-0.1,8.6,2.9,12.1c1,1.2,2,2.4,3.1,3.6c1.8,2.1,3.3,4.3,4.5,6.8c1,2.1,1.1,4.2,0.7,6.4c-0.2,1.5-0.8,2.8-1.1,4.3
		c-0.3,1.2,0.3,2.1,1.5,2.4c0.5,0.1,1,0.3,1.5,0.3c4.1,0.5,8.2,0.3,12.3-0.2c1.3-0.2,2.5-0.4,3.6-1c1.4-0.7,1.8-1.7,1.3-3.2
		c-0.3-1.1-0.8-2-1.5-2.9c-1-1.4-2-2.8-3.2-4.1c-1.7-2.1-2.7-4.5-3.4-7.1c-0.6-2.4-0.2-4.8,0.4-7.1c1.1-4.2,0.7-8.1-1.7-11.8
		c-0.3-0.5-0.6-1.1-0.8-1.6c-0.4-0.8-0.5-1.7-0.1-2.5c0.3-0.8,0.5-1.7,0.8-2.5c0.9-2.6,1-5.3,0.3-8c-0.4-1.6-0.8-3.1-1.1-4.7
		c-0.3-1.5-0.6-3-0.3-4.5c0.6-2.6,0.8-5.2,0.8-7.8c-0.1-3.8-0.8-7.4-1.4-11.1c-0.1-0.5,0-0.8,0.5-1.1c1.3-0.8,2.6-1.5,4-2.1
		c1.8-0.8,3.6-1.3,5.6-1.4c0.3,0,0.7,0,0.9,0.2s0.3,0.5,0.7,0.3c0.3-0.2,0.3-0.5,0.3-0.8c0-0.4,0-0.8-0.1-1.2
		c-0.7-2.8-1.5-5.6-2.6-8.3c-2.3-5.6-5.2-10.9-8-16.3c-3.2-6.1-6.6-12.2-9.6-18.4c-0.1-0.3-0.4-0.6-0.3-1.1c0.3,0.2,0.5,0.4,0.7,0.6
		c3.7,3,6.9,6.4,10.2,9.9c3.4,3.5,7.6,4.7,12.3,3.8c5.6-1,10.5-3.4,14.3-7.8C162.6,150.5,163.4,149.3,163.1,147.4z M145.2,138.2
		c0.5,0.2,1.1,0.7,1.6,0.5c0.8-0.3,1.1-1.1,1.3-1.9c0.2-0.6-0.2-1-0.6-1.3c-1-0.7-2.1-1.2-3.4-1.8c0.3,1.1,0.5,2.2,0.3,3.1
		C144.2,137.7,144.6,138,145.2,138.2z M131,95.9c-2.5,5.9-5.6,11.4-9.2,16.6c-0.3,0.4-0.4,0.9-0.4,1.4c0.1,2.1,0.7,4.2,1.6,6.1
		c0.2,0.5,0.4,0.7,1,0.5c1.6-0.6,3.3-0.7,4.9,0.1c1.1,0.5,2.3,0.2,3.3-0.2c1-0.5,2-0.7,3.2-0.7c0.4,0,0.7,0.1,1-0.2
		c0.5-0.5,1.2-0.6,1.8-0.5c0.7,0,1.2-0.2,1.9-0.5c-0.5-0.3-1-0.1-1.5-0.3c0.8-0.7,1.7-0.6,2.6-0.4c0.9,0.3,1.7,0,2.5-0.4
		c-0.7-0.4-1.4-0.4-2.1-0.5c0.3-0.4,0.7-0.4,1-0.4c0.8-0.1,1.6,0.2,2.3,0.4c0.3,0.1,0.7,0.3,0.9-0.1c0.2-0.5,0.7-0.5,1-0.4
		c2.3,0.5,4.6,0.9,6.5,2.3c0.6,0.5,1.2,0.9,2,1.4c-0.1-1.1-0.1-2.1-0.4-3c-1.7-5.7-4-11.2-7-16.4c-0.3-0.4-0.6-0.8-0.9-1.2
		c-0.8-0.8-1.6-1.7-2.3-2.5c1,0.4,1.9,1.1,3,1.8c0-1.7,0.1-3.2-0.1-4.7c-0.8-6.2-3.5-11.4-8.4-15.3c-2.3-1.8-4.9-3.2-7.5-4.4
		c-4.5-2.1-9.1-3.7-13.8-5.2c0.2,0.2,0.4,0.3,0.6,0.5c3.2,2.4,6.3,4.8,9.4,7.3c2.1,1.7,4.2,3.5,6,5.5c0.4,0.4,0.6,0.9,0.5,1.5
		c-0.5,3.2-1.1,6.3-2.2,9.3 M119.9,140.2c1.7,5.1,4.1,9.8,6.6,14.5c3.9,7.4,8,14.7,11.7,22.3c1.8,3.7,3.6,7.5,4.6,11.6
		c0.1,0.6,0.2,0.7-0.5,0.8c-2.8,0-5.3,1.1-7.8,2.4c-2.5,1.3-4.8,2.9-7.1,4.5c-8.3,5.4-17.4,8.9-27.2,10.6c-4.8,0.8-9.5,1.1-14.4,1
		c-8.2-0.1-16.3-1-24.2-3.1c-6.1-1.6-12-4-17.8-6.4c-5.1-2.1-10.3-4.3-15.7-5.6c-0.9-0.2-1.8-0.4-2.7-0.6c3.9-5.2,5.1-11.3,6.2-17.4
		c1.3-7.7,2-15.6,2-23.4c0-0.7,0.1-0.8,0.8-0.7c4.8,0.9,9.6,0.9,14.4,0.4c4.8-0.4,9.6-1.1,14.4-1c3,0,6.1,0,9,1.1
		c0.6,0.2,1.3,0.2,2,0.3c-0.1,0.6-0.3,1.3-0.4,1.9c-0.2,2.5,1.7,3.9,4.1,3.1c2-0.7,3.4-2.2,4.5-4c0.6-1,1.2-1.9,2.5-2.3
		c1.2-0.4,2.1-1.4,2.8-2.4c0.2,0.2,0.4,0.4,0.6,0.5c0.6,0.6,1.3,0.7,2,0.3c3.3-1.9,5.5-4.6,5.9-8.5c0.1-0.5,0.1-0.6,0.6-0.5
		c4,0.9,8,1.5,12.1,1.7c2.4,0.1,4.8,0,7.1-0.6c1.2-0.3,2.4-0.7,3.3-1.7C119.8,139.3,119.8,139.8,119.9,140.2z M55.1,180.7
		c-1.3,3.6-2.9,7.1-6.3,9.2c-3.4,2.1-7,2.6-11,1.3c2.3,2.1,7.1,2.3,10.6,0.4C52.3,189.6,55.8,183.9,55.1,180.7z M55.8,175.8
		c-0.7-0.5-1.5-1.1-2.2-1.5c-4.4-2.7-8.2-6-11.4-10.2c-2.4-3.1-4.3-6.5-5.6-10.2c-0.1,1.7,0.3,3.3,1,4.9c3.2,7.5,8.5,13.1,15.6,17
		c0.7,0.4,1.4,0.7,2.1,0.9c0.3,0.1,0.6,0.3,0.8-0.1C56.4,176.2,56.1,176,55.8,175.8z M112.3,158c-0.3-1.9-0.7-3.8-1.4-5.6
		c0,0.2,0,0.5,0.1,0.7c0.5,4.5,1,9.1,0.6,13.7c-0.4,3.8-1.2,7.5-3.2,10.8c-3.2,5.3-8,8.5-13.8,10.1c-7.8,2.2-15.5,1.6-23.1-1
		c-4.7-1.6-8.2-4.5-10.4-9c-2.3-4.6-3.6-9.6-4.6-14.7c-0.4-2-0.7-4.1-1-6.1c-0.3,2.3-0.1,4.7,0.2,7c0.6,5.1,1.9,10,4.1,14.7
		c2.3,4.8,5.9,8.1,11,9.8c3.3,1.1,6.7,1.9,10.2,2.2c5.8,0.5,11.5,0,17-2.2c7.4-3,12.3-8.3,14.2-16.2
		C113.3,167.6,113.1,162.8,112.3,158z M121.5,186.2c-1.8-1.6-3.1-3.5-4.3-5.6c-0.5-0.9-1.1-1.9-1.6-2.9c-0.1,0-0.1,0.1-0.2,0.1
		c1.2,3.7,2.8,7.2,5.9,9.8c1,0.8,2.1,1.4,3.3,1.7c3.1,0.7,5.8-0.3,8.2-2.2c0.8-0.7,1.6-1.4,2.2-2.3c-0.4,0.1-0.7,0.3-1.1,0.5
		c-1.5,0.8-3,1.7-4.7,2.3C126.4,188.6,123.9,188.1,121.5,186.2z M119.2,172.5c-0.1,0-0.3,0.1-0.4,0.2c-0.5,0.3-0.5,0.9,0.1,1.2
		c0.3,0.2,0.7,0.2,1.1,0.2c1.1-0.1,2-0.7,2.7-1.5c1.1-1.2,1.7-2.7,2.1-4.3c0.9-3.8,0.6-7.5-0.1-11.3c-0.3-1.6-0.7-3.2-1.4-4.7
		c0,0.2,0,0.5,0.1,0.7c0.4,2.6,0.7,5.2,0.7,7.8c0,2.7-0.2,5.4-1.1,8C122.3,170.5,121.3,172.1,119.2,172.5z M132.5,125.9
		c0.6,0.8,0.8,1.6,0.8,2.6c-0.1,2.1-0.4,4.2-1.2,6.1c-0.7,1.6-3.1,3-4.9,2.8c-0.7-0.1-0.9-0.6-1.1-1.2c-0.5-1.8-0.5-3.5-0.1-5.3
		c0.2-0.9,0.4-1.8,0.7-2.6c0.1-0.5,0.3-0.9,0.4-1.4c0.3-1.6,0.1-1.9-1.4-2.5c-1-0.4-2.1-0.7-3.2-1.1c0.7-1,1.6-1.5,2.7-1.7
		c1.2-0.2,2.4-0.1,3.4,0.6C130,123.2,131.3,124.4,132.5,125.9z M137.5,141.9c0.1,0.4,0.5,0.6,0.9,0.6c0.6,0,1.1-0.3,1.5-0.6l1.4-1.3
		c1.7-1.8,2.2-4,1.6-6.4c-0.1,0.3-0.2,0.7-0.3,1c-0.9,2.5-2.1,4.8-4.5,6.2C137.8,141.5,137.4,141.4,137.5,141.9z M132.1,218.8
		c0.9,2.8,1.7,7.8,1.5,9.7c-0.2,1.4-0.6,2.8-1.1,4.1c-0.8,2-0.5,3.9,0.5,5.7c0.2,0.4,0.4,0.8,0.6,1.2c1.9,3.1,2.2,6.4,1.3,9.8
		c-0.5,1.9-0.8,3.8-0.8,5.7c0,2.9,1.2,5.5,2.6,8c0.4,0.7,0.5,1.4,0.6,2.1c0.1,0.6-0.3,0.9-0.8,1.1c-0.7,0.3-1.5,0.5-2.3,0.5
		c-2.3,0.2-4.6,0.1-6.9-0.4c-0.3-0.1-0.5-0.2-0.5-0.6c-0.3-3.7-1.8-6.8-4-9.7c-1.5-1.8-2.9-3.6-4.5-5.3c-2.8-3.1-3.7-6.7-2.8-10.8
		c0.1-0.6,0.2-1.1,0.3-1.7c0.3-2-0.8-3.5-1.9-5c-1.2-1.5-2.7-2.7-4.2-3.8c-2.8-2.1-5.6-4.1-7.8-6.8c-1.4-1.7-2.7-3.6-3.9-5.4
		c-1.8-2.6-3.6-5.3-5.7-7.9c14.4-0.9,27.4-5.4,39.2-13.7c0.5,2.9,0.9,5.7,1.2,8.5c0.5,5-0.3,9.7-2.1,14.3c-0.8,2.1-1.6,4.2-1.5,6.5
		c0,0.3-0.1,0.7,0.2,1.1C130,223.7,131,221.3,132.1,218.8z M116.6,226.1c-3.9-1.6-7.3-4.1-10.3-7c-1.5-1.4-2.8-2.9-4-4.6
		c0.1,0.9,0.6,1.7,1,2.4c2.7,4.5,6.7,7.5,11.5,9.7c0.9,0.4,1.9,0.6,2.1,1.8c0,0.1,0.1,0.2,0.3,0.4c0.1-0.6,0-1,0.1-1.4
		C117.5,226.7,117.2,226.3,116.6,226.1z M126.6,233.9c1.4-1.4,1.5-3.2,1.2-5c-0.1,0-0.2,0-0.2-0.1c-0.2,0.7-0.3,1.4-0.5,2.1
		c-0.8,2.5-2.4,3.3-4.8,2.2c-0.8-0.4-1.6-0.9-2.5-1.3c-0.2-0.1-0.4-0.3-0.6-0.1s0,0.5,0.1,0.7c0.7,1.2,1.8,1.8,3,2.3
		C123.9,235.2,125.4,235.2,126.6,233.9z M128.5,254.9c-0.3-2.4-1.1-4.6-1.3-6.9c-0.2-2.3,0.7-4.4,1.2-6.8
		C125.5,244.9,125.5,250.7,128.5,254.9z M139.2,138.4c1.6-2.1,2.6-4.5,2.5-7.2c0-1.2-0.4-2.3-1.7-3.1c0.7,4.7-0.1,8.8-3.7,12.2
		C137.9,140.1,138.6,139.2,139.2,138.4z M86.4,109.6c0.4,0.3,0.6,0.3,0.9-0.1c0.6-0.8,1.3-1.6,1.9-2.4c0.9-1.2,0.9-1.2-0.2-2.1
		c-3.1-2.7-6.2-5.3-8.7-8.7c-0.4,1.2-0.8,2.3-1.3,3.3c-2.3,4.7-4.8,9.2-7.5,13.7c-1.8,3-3.8,5.9-6.2,8.5c-1,1.1-1,1.1,0.3,1.9
		c2.5,1.6,4.9,3.3,7.5,4.8c0.5,0.3,0.7,0.3,1-0.3c0.6-1.4,1.6-2.2,3.1-2.5c2.2-0.4,4.1-1.3,6-2.4c2.2-1.3,4.5-1.3,6.7-0.1
		c0.6,0.3,1.2,0.6,1.6,1.1c0.4,0.4,0.6,0.3,0.9-0.2c0.3-0.6,0.7-1.3,1.1-1.9c0.5-0.6,0.3-0.9-0.4-1.2c-3.4-1.5-6.9-2.9-10.3-4.3
		c-1-0.4-1.1-0.6-0.4-1.4c1-1.2,2.1-2.3,3.1-3.5c1.1-1.2,1-1.2-0.2-2.2s-2.4-2-3.4-3.2c0.4,0.2,0.7,0.4,1,0.6
		C83.9,107.8,85.1,108.7,86.4,109.6z"/>
</g>
<g id="blood">
	<g>
		<path fill="#B42427" d="M115.5,121.4c-1.4,1.3-2.9,2.5-4.4,3.6c-0.8,0.6-1.5,1.1-2.4,1.6c-0.8,0.5-1.6,1.1-2.5,1.5
			c-0.1,0-0.2,0.2,0,0.2c0.1-0.1,0.3-0.1,0.4-0.2c0.1,0,0.1,0,0.2,0c0.3,0,0.4,0.3,0.5,0.6c0.1,0.6,0.1,1.2,0.2,1.8s0.2,1.2,0.2,1.8
			c0.1,0.7,0.1,1.4,0,2.1c-0.1,0.6-0.1,1.1-0.1,1.7c0,0.3,0.1,0.9,0.3,1.1c0.5,0.6,0.8-0.7,0.8-1c0.2-1.2-0.3-2.5-0.4-3.7
			c-0.1-0.6,0.1-1.2,0.1-1.8c0.1-0.6,0-1.2,0-1.8c0-0.7,0.2-1.4,0.7-1.9c0.4-0.4,0.5,0.2,0.5,0.4c0.1,0.3,0,0.7,0,1
			c0,0.2,0,0.9,0.3,1c0.2,0.1,0.4-0.2,0.4-0.4c0.4-1.1-0.6-2.4,0.3-3.3c0.7-0.7,0.7,0.8,0.8,1.1c0.1,0.7,0.1,1.4,0.2,2.1
			c0.1,1.4,0.1,2.8,0.1,4.1c0,0.6,0,1.2,0,1.7c0,0.6,0,1.1,0.2,1.6c0.1,0.3,0.4,0.6,0.7,0.4c0.3-0.2,0.5-0.7,0.6-1.1
			c0.3-1.1,0.2-2.2,0.2-3.3c-0.1-1.3-0.3-2.7-0.2-4c0-0.6,0.2-1.2,0.3-1.8c0.1-0.6-0.1-1.2-0.2-1.8c0-0.2,0-0.5,0-0.7c0,0,0,0,0.1,0
			c0.1-0.1,0.3-0.2,0.4-0.4c0.2-0.2,0.5,0,0.7-0.1c0.3,0,0.6-0.3,0.8-0.6c0.1-0.1,0.1-0.3,0.1-0.5s0.5-0.9,0.6-0.4
			c0.2,0.7,0.2,1.4,0.2,2s0.1,1.2,0.1,1.9c0,0.3,0,1.2,0.3,1.4c0.2,0.2,0.4-0.1,0.5-0.3c0.2-0.5,0.2-1.1,0.1-1.6
			c-0.1-0.6-0.3-1.3-0.3-1.9c0-0.7,0.2-1.3,0.3-2c0.1-0.7,0.3-1.1,0.6-1.8c0.3-0.7,0.3-0.9,0.6-1.2"/>
		<g>
			<path fill="#B42427" d="M109,127c-0.1,0-0.3,0-0.4,0.1c-0.3,0.3-0.4,0.7-0.5,1.1c-0.3,1.1,0,2.2,0,3.4c0,0.3,0,0.7,0,1
				s0.1,0.6,0.1,1c0.1,0.6,0.3,1.1,0.3,1.7c0.1,0.4,0.1,0.9,0.1,1.3c0-0.1,0-0.2,0-0.2c0.2-1.2-0.3-2.5-0.4-3.7
				c-0.1-0.6,0.1-1.2,0.1-1.8c0.1-0.6,0-1.2,0-1.8C108.3,128.2,108.5,127.5,109,127L109,127z"/>
			<path fill="#B42427" d="M110.3,126.2c-0.5,0.5-0.1,1.4-0.1,2c0,0.4,0,0.9-0.2,1.2c0.1,0,0.2-0.2,0.3-0.4
				C110.6,128.1,109.9,127,110.3,126.2z"/>
			<path fill="#B42427" d="M112.9,128.5c0-0.6,0.2-1.2,0.3-1.8c0.1-0.6-0.1-1.2-0.2-1.8c0-0.2,0-0.5,0-0.7c0,0,0,0,0.1,0l0.1-0.1
				c-0.4,0.1-0.5,1-0.6,1.4c0,0.5,0.1,1,0.1,1.5c0,0.6-0.2,1.2-0.2,1.8c0,0.7,0,1.3,0.1,2s0.2,1.3,0.3,2c0.1,0.6,0.2,1.3,0.2,1.9
				c0,0.4-0.1,0.9-0.2,1.3c0,0.2-0.1,0.3-0.1,0.5c0.1-0.2,0.2-0.4,0.2-0.6c0.3-1.1,0.2-2.2,0.2-3.3
				C113,131.2,112.8,129.8,112.9,128.5z"/>
			<path fill="#B42427" d="M116.7,121.3c-0.2,0.7-0.2,1.4-0.2,2.1c0,0.5,0.1,0.9,0.2,1.4c0.1,0.4,0.2,0.7,0.3,1.1c0-0.1,0-0.1,0-0.2
				c-0.1-0.6-0.3-1.3-0.3-1.9c0-0.7,0.2-1.3,0.3-2c0.1-0.7,0.1-1.2,0.6-1.8l0,0C117.1,120.2,116.9,120.7,116.7,121.3z"/>
		</g>
		<path fill="#B42427" d="M110.3,126.2c-0.3,0.2-0.7,0.5-1.1,0.7c0.2,0,0.2,0.4,0.3,0.6c0.1,0.3,0,0.7,0,1c0,0.2,0,0.9,0.3,1
			c0.2,0.1,0.4-0.2,0.4-0.4C110.6,128.1,109.9,127,110.3,126.2z"/>
		<path fill="#ED2328" d="M112.1,130c0-0.6-0.1-1.3-0.1-1.9c0-0.6-0.1-1.2-0.3-1.7h-0.1c0.1,0.6,0,1.2,0.1,1.8c0,0.6,0,1.3,0.1,1.9
			c0,1.1-0.1,2.3,0.2,3.4c0,0.1,0.1,0,0.1-0.1C112.1,132.3,112.1,131.2,112.1,130z"/>
		<path fill="#ED2328" d="M112.4,136.5c-0.3-0.3-0.3-0.7-0.3-1.1c0-0.4-0.1-0.9-0.1-1.3c0-0.1-0.1,0-0.1,0.1
			C111.8,134.6,111.5,136.8,112.4,136.5C112.4,136.6,112.4,136.5,112.4,136.5z"/>
		<path fill="#ED2328" d="M107.8,131.1c-0.1-0.4-0.1-0.7-0.2-1.1c0-0.1-0.1,0-0.1,0.1c0,0.7,0,1.5,0.3,2.2l0,0
			C107.8,131.8,107.9,131.5,107.8,131.1z"/>
		<path fill="#ED2328" d="M108,135.4c0-0.3,0.1-0.5,0.1-0.8s0-0.5-0.1-0.8h-0.1c0,0.6-0.2,1.1-0.2,1.7c0,0.4,0,1,0.3,1.4l0.1-0.1
			C108,136.4,108,135.9,108,135.4z"/>
		<path fill="#ED2328" d="M110,127.9c-0.1-0.1-0.3,0.1-0.2,0.2l0,0l0,0c0,0.2-0.1,0.7,0.2,0.5c0.1-0.1,0.1-0.2,0.1-0.4
			C110,128.1,110,128,110,127.9z"/>
		<path fill="#ED2328" d="M116.7,125.8c0-0.3,0-0.6-0.2-0.8c0-0.1-0.1,0-0.2,0.1c-0.1,0-0.1,0.1-0.1,0.1l0,0c-0.1,0.2,0,0.4,0,0.6
			s0,0.3,0,0.5c0,0.1,0,0.5,0.2,0.6c0.1,0.1,0.2-0.1,0.2-0.2C116.8,126.4,116.7,126.1,116.7,125.8z"/>
	</g>
	<g>
		<path fill="#B42427" d="M133.9,86c-0.2,0.4-0.4,0.5-0.6,0.9c-0.2,0.5-0.3,0.9-0.5,1.3s-0.4,0.8-0.5,1.3c-0.2,0.4-0.4,0.8-0.5,1.3
			c-0.6,1.5-1.1,3.1-1.6,4.5c-0.1,0.4-0.3,0.7-0.4,1c-0.1,0.3-0.3,0.6-0.4,1c-0.3,0.6-0.6,1.2-1,1.7l0,0c-1.6,3.4-3.3,6.6-5.1,9.5
			c-0.1,0.1-0.2,0.1-0.2,0.2c-0.3,0.2-0.6,0.6-0.8,1.1c-0.3,0.5-0.5,1-0.7,1.4l-0.3,0.6c-1.2,1.8-2.5,3.5-3.8,5c0,0-0.1,0-0.1,0.1
			c-0.3,0.1-0.6,0.3-0.9,0.7c-0.3,0.3-0.6,0.7-0.8,0.9c-0.3,0.5-0.6,0.8-0.9,0.8c-0.1,0-0.2-0.1-0.3-0.2c-0.1,0.1-0.3,0.2-0.4,0.4
			c-0.1,0.5-0.2,0.7-0.4,0.7c-0.1,0.2-0.2,0.4-0.3,0.4c-0.2,0.1-0.4,0-0.6,0.1h-0.1c-0.2,0.2-0.3,0.4-0.5,0.5
			c-0.1,0.2-0.2,0.3-0.3,0.5l-0.1,0.1c0,0.1-0.1,0.2-0.1,0.3c-0.1,0.3-0.2,0.6-0.4,0.8c-0.1,0.2-0.3,0.2-0.4,0.2s-0.3-0.2-0.4-0.1
			s-0.2,0.3-0.3,0.4c-0.2,0.3-0.3,0.6-0.5,0.8c-0.1,0.1-0.2,0.2-0.2,0.2c-0.1,0.1-0.2,0.2-0.3,0.2l0,0l-0.1,0.1
			c-0.2,0.2-0.4,0.4-0.6,0.5c-0.2,0.2-0.4,0.3-0.6,0.4c-0.3,0.2-0.6,0.4-0.9,0.6c-0.3,0.1-0.6,0.3-0.9,0.6c-0.2,0.2-0.2,1.3-0.4,1.5
			l0,0l0,0c0.2,0.2,0.2,0.1,0.4,0.2c0.2,0.1,0.4,0.1,0.6,0.1s0.4,0.2,0.7,0.3c0.2,0.1,0.4,0.2,0.6-0.1c0.1-0.1,0.1-0.4,0.2-0.6
			c0.2-0.1,0.5-0.3,0.7-0.5c0.1,0,0.2,0,0.2-0.1c0.1-0.1,0.2-0.2,0.3-0.2c0.2-0.4,0.4-0.2,0.7-0.7c0.5-0.7,0.7-0.7,1.1-0.9
			c0.4-0.1,0.3,0,0.6-0.3c0.3-0.3,0.5-0.6,0.8-0.9c0.2,0.1,0.3-0.4,0.5-0.2h0.1l0.2-0.1c0.3-0.1,0.5-0.3,0.7-0.6
			c0.2-0.2,0.2-0.2,0.5-0.2c0.2-0.1,0.3-0.2,0.5-0.3c0.1-0.1,0.3-0.1,0.4-0.2s0.2-0.3,0.3-0.5c0,0,0.1,0,0.2,0.1v-0.1
			c0.3-0.7,0.5-1.3,0.8-1.8s0.6-0.9,0.9-1.2c0.2-0.2,0.5-0.5,0.7-0.8s0.4-0.6,0.7-1l0.3-0.2c0.1-0.1,0.2-0.1,0.3-0.2
			c0.2-0.1,0.5-0.3,0.7-0.4c0.2-0.2,0.5-0.3,0.7-0.5c0.1-0.1,0.2-0.2,0.3-0.3c0.1-0.1,0.2-0.3,0.3-0.4c0.2-0.3,0.3-0.6,0.5-0.8
			c0.3-0.4,0.6-1.1,0.8-1.8c0.3-0.4,0.6-0.8,0.9-1.2c0.3-0.4,0.6-0.7,0.9-1.2c0.1-0.2,0.2-0.5,0.3-0.8c0.2-0.4,0.4-0.4,0.6-0.8
			c0.2-0.6,0.4-1.3,0.7-1.8c0.1-0.2,0.3-0.4,0.4-0.5s0.3-0.4,0.4-0.6s0.3-0.4,0.4-0.6s0.2-0.5,0.3-0.7c0.3-0.6,0.3-1.6,0.6-2.1
			c0.1-0.3,0.3-0.4,0.4-0.6c0.1-0.1,0.1-0.2,0.2-0.3c0.1-0.1,0.1-0.3,0.2-0.4c0.2-0.7,0.5-1.3,0.7-2.1l0.1-0.3
			c0.2-0.6,0.4-1.2,0.6-1.8c0.2-0.6,0.5-1.3,0.7-2c0.4-1.1,0.6-1.5,0.9-2.3l0.4-1.3c0.2-0.4,0.2-0.8,0.4-1.3
			c0.1-0.4,0.3-0.9,0.4-1.3c0.2-0.8,0.3-1.7,0.5-2.5c0,0.1-0.1,0.2-0.1,0.3C133.8,86.7,133.9,86.4,133.9,86z"/>
		<path fill="#711011" d="M114.7,120.7c-0.1,0.3-0.3,0.5-0.4,0.6c-0.1,0.2-0.2,0.3-0.3,0.4c-0.2,0.2-0.4,0.2-0.6,0.4
			c0,0-0.1,0-0.1,0.1c-0.2,0.2-0.4,0.4-0.6,0.6c-0.1,0.1-0.3,0.3-0.4,0.4l-0.1,0.1c0,0.1-0.1,0.1-0.1,0.2c-0.1,0.2-0.3,0.4-0.4,0.6
			c-0.1,0.1-0.3,0.2-0.4,0.3c-0.1,0-0.2,0-0.4,0.1c-0.1,0.1-0.2,0.2-0.3,0.3c-0.2,0.2-0.4,0.5-0.6,0.6l-0.3,0.2
			c-0.1,0.1-0.2,0.2-0.3,0.2l0,0c0,0-0.1,0-0.1,0.1c-0.2,0.2-0.4,0.4-0.6,0.5s-0.4,0.3-0.6,0.4c-0.3,0.2-0.6,0.4-0.9,0.6
			s-0.6,0.3-1,0.6c0.2,0,0.4,0.1,0.7,0.1c0.2,0,0.4,0,0.7-0.1c0.2-0.1,0.5-0.2,0.7-0.4c0-0.1,0.1-0.1,0.1-0.2
			c0.3-0.2,0.5-0.3,0.8-0.5c0.1,0,0.2-0.1,0.2-0.1c0.1,0,0.1-0.1,0.2-0.1l0,0c0.3-0.4,0.6-0.6,0.9-0.7c0.4-0.1,0.7-0.4,1-0.9
			c0.3-0.4,0.7-0.7,1-1c0.2-0.1,0.4-0.2,0.5-0.4c0.2-0.1,0.4-0.3,0.5-0.4c0.4-0.3,0.7-0.7,1.1-1.1s0.7-0.6,1.1-0.9
			c0.5-0.5,1-1,1.5-1.6c0.1-0.2,0.2-0.3,0.3-0.5c0.1-0.2,0.2-0.3,0.3-0.5c0.2-0.3,0.4-0.6,0.7-0.8c0.2-0.3,0.5-0.6,0.7-0.9
			s0.5-0.7,0.7-1c0,0,0.1-0.1,0.3-0.3c0.1-0.2,0.3-0.3,0.3-0.3c0.2-0.2,0.4-0.5,0.7-0.7c0.2-0.3,0.4-0.5,0.7-0.8
			c0.1-0.1,0.2-0.3,0.3-0.4c0.1-0.1,0.2-0.3,0.3-0.5c0.2-0.3,0.4-0.6,0.6-0.9c0.3-0.5,0.6-1.1,0.9-1.8c0.3-0.5,0.6-1,0.9-1.5
			s0.6-1,0.9-1.6c0.1-0.2,0.3-0.5,0.4-0.8c0.2-0.4,0.4-0.6,0.6-1c0.3-0.6,0.5-1.2,0.8-1.8c0.1-0.2,0.3-0.5,0.4-0.7
			c0.1-0.2,0.3-0.5,0.4-0.7c0.1-0.2,0.3-0.5,0.4-0.7c0.1-0.3,0.2-0.5,0.4-0.8c0-0.1,0.1-0.1,0.1-0.2c0.1-0.3,0.2-0.6,0.3-1
			c0.1-0.3,0.2-0.6,0.3-0.8c0.2-0.5,0.4-0.9,0.5-1.3l0.5-1.3c0.2-0.4,0.3-0.8,0.5-1.2c0.2-0.4,0.3-0.9,0.5-1.3
			c0.3-0.9,0.6-1.9,0.9-2.9c0.2-0.7,0.4-1.4,0.6-2c0.2-0.7,0.4-1.3,0.6-2l-0.4,1.1v0.1c-0.2,0.5-0.4,1.1-0.6,1.7
			c-0.2,0.5-0.4,1.1-0.6,1.6c0,0.1,0,0.1,0,0.1c-2.3,5.9-4.8,11.3-7.5,16c-0.1,0.1-0.1,0.2-0.2,0.3c-0.3,0.4-0.6,0.9-0.9,1.4
			s-0.6,1-0.8,1.5c0,0-0.1,0.2-0.2,0.3c-0.1,0.2-0.2,0.3-0.2,0.3s-0.3,0.4-0.6,1c-0.4,0.6-0.9,1.3-1.4,2.1c-0.1,0.2-0.3,0.4-0.4,0.5
			c-0.1,0.2-0.3,0.3-0.4,0.5c-0.2,0.3-0.5,0.6-0.7,0.9c-0.4,0.5-0.7,0.8-0.7,0.8l-0.1,0.1c-0.3,0.3-0.6,0.6-0.9,1s-0.6,0.7-0.9,1.1
			s-0.6,0.8-1,1c-0.1,0-0.2,0.1-0.3,0.1C115,120.3,114.9,120.5,114.7,120.7z"/>
	</g>
</g>
</svg>
