<?xml version="1.0" encoding="utf-8"?>
<!-- Generator: Adobe Illustrator 26.0.2, SVG Export Plug-In . SVG Version: 6.00 Build 0)  -->
<svg version="1.2" baseProfile="tiny" id="tape" xmlns="http://www.w3.org/2000/svg" xmlns:xlink="http://www.w3.org/1999/xlink"
	 x="0px" y="0px" viewBox="0 0 680 68" overflow="visible" xml:space="preserve">
<g id="line">
	<polygon id="yellow_00000083063974151474565450000003495694363413051553_" fill="#FFC404" points="41.3,40.6 39.3,38.3 57.8,38.9 
		59.8,41.2 82.1,42 80.1,39.7 98.5,40.4 100.5,42.6 163.5,44.8 161.6,42.6 180,43.2 182,45.5 204.3,46.3 202.3,44 220.8,44.6 
		222.7,46.9 245,47.7 243.1,45.4 261.5,46.1 263.5,48.3 285.8,49.1 283.8,46.9 302.3,47.5 304.2,49.8 367.2,52 365.3,49.7 
		383.8,50.4 385.7,52.6 408,53.4 406,51.2 424.5,51.8 426.4,54 489.5,56.2 487.5,54 506,54.7 507.9,56.9 530.2,57.7 528.3,55.5 
		546.8,56.1 548.7,58.3 611.7,60.5 609.8,58.3 628.3,59 630.1,61.1 652.4,61.9 650.5,59.7 669,60.4 670.9,62.6 680,62.9 680,60.8 
		680,57.8 680,34.1 680,31.9 665.5,31.4 662.7,28.3 640.5,27.5 643.2,30.6 624.7,30 622,26.8 599.7,26.1 602.4,29.2 583.9,28.5 
		581.3,25.4 559,24.6 561.7,27.7 543.2,27.1 540.5,24 518.2,23.2 520.9,26.3 502.4,25.6 499.8,22.6 477.5,21.8 480.1,24.8 
		461.6,24.1 459,21.1 436.8,20.4 439.3,23.4 420.9,22.7 418.3,19.7 396,18.9 398.6,21.9 380.1,21.2 377.6,18.3 355.3,17.5 
		357.8,20.4 339.3,19.8 336.8,16.9 314.5,16.1 317,19 298.6,18.3 296.1,15.5 273.8,14.7 276.3,17.5 257.8,16.9 255.3,14 192.3,11.8 
		194.7,14.6 176.3,14 173.8,11.2 151.6,10.4 154,13.2 135.5,12.5 133.1,9.8 70.1,7.6 72.4,10.3 54,9.6 51.6,6.9 29.4,6.1 31.7,8.8 
		13.2,8.2 10.9,5.5 0,5.1 0,7.7 0,10.3 0,34.1 0,36.9 17,37.5 19,39.8 	"/>
	<path id="black" d="M0,39.2l0-0.7v-4.4l14.5,0.5l4.5,5.2L0,39.2z M15.5,5.7l-4.6-0.2l0,0l4.6,5.4L34,11.5l-4.6-5.4L15.5,5.7z
		 M36.8,35.3l4.5,5.2l0,0l18.5,0.6l0,0L55.2,36L36.8,35.3z M70.1,7.6L51.6,6.9l0,0l4.6,5.4l18.5,0.6L70.1,7.6L70.1,7.6z M77.5,36.8
		l4.5,5.2l2.1,0.1l16.4,0.6l0,0L96,37.4L77.5,36.8z M92.4,8.3l4.6,5.4l18.5,0.6L110.8,9L92.4,8.3z M141.3,44.1l-4.5-5.2l-18.5-0.6
		l4.5,5.2L141.3,44.1z M136,9.9l-2.8-0.1l0,0l4.6,5.4l18.5,0.6l-4.6-5.4L136,9.9z M159,39.6l4.5,5.2l0,0l18.5,0.6l0,0l-4.5-5.2
		L159,39.6z M192.3,11.8l-18.5-0.6v0l4.6,5.4l18.5,0.6L192.3,11.8L192.3,11.8z M218.2,41.7L199.7,41l4.5,5.2l0,0l8.6,0.3l9.9,0.3
		L218.2,41.7z M214.6,12.6l4.6,5.4l18.5,0.6l-4.6-5.4L214.6,12.6z M258.9,43.1l-18.5-0.6l4.5,5.2l0,0l10.8,0.4l7.7,0.3L258.9,43.1z
		 M273.8,14.7L255.3,14l0,0l4.6,5.4l18.5,0.6L273.8,14.7L273.8,14.7z M281.2,43.9l4.5,5.2l0,0l18.5,0.6l0,0l-4.5-5.2L281.2,43.9z
		 M314.5,16.1l-18.5-0.6v0l4.6,5.4l18.5,0.6L314.5,16.1L314.5,16.1z M345,51.2l-4.5-5.2L322,45.3l4.5,5.2L345,51.2z M355.3,17.5
		l-17.5-0.6l-1,0l4.6,5.4l18.5,0.6L355.3,17.5L355.3,17.5z M362.7,46.7l4.5,5.2l11,0.4l7.5,0.3l0,0l-4.5-5.2L362.7,46.7z M396,18.9
		l-18.5-0.6l0,0l4.6,5.4l18.5,0.6L396,18.9L396,18.9z M403.4,48.2l4.5,5.2l0,0l18.5,0.6l0,0l-4.5-5.2L403.4,48.2z M436.8,20.4
		l-18.5-0.6l0,0l4.6,5.4l18.5,0.6L436.8,20.4L436.8,20.4z M467.2,55.5l-4.5-5.2l-18.5-0.6l4.5,5.2L467.2,55.5z M484.9,51l4.5,5.2
		l0,0l18.5,0.6l0,0l-4.5-5.2L484.9,51z M469.2,21.5L459,21.1l0,0l4.6,5.4l18.5,0.6l-4.6-5.4L469.2,21.5z M518.2,23.2l-18.5-0.6l0,0
		l4.6,5.4l18.5,0.6L518.2,23.2L518.2,23.2z M525.7,52.4l4.5,5.2l9.6,0.3l8.8,0.3l0,0l-4.5-5.2L525.7,52.4z M559,24.6l-13.8-0.5
		l-4.7-0.2l4.6,5.4l18.5,0.6L559,24.6L559,24.6z M589.4,59.7l-4.5-5.2l-18.5-0.6l4.5,5.2L589.4,59.7z M599.7,26.1L589,25.7l-7.8-0.3
		l4.6,5.4l18.5,0.6L599.7,26.1L599.7,26.1z M607.1,55.3l4.5,5.2l0,0l18.5,0.6l0,0l-4.5-5.2L607.1,55.3z M640.5,27.5L622,26.8l0,0
		l4.6,5.4l18.5,0.6L640.5,27.5L640.5,27.5z M647.9,56.7l4.5,5.2l15,0.5l3.5,0.1l0,0l-4.5-5.2L647.9,56.7z M667.4,33.6l12.6,0.4v-5.2
		l-17.3-0.6L667.4,33.6z"/>
</g>
<path id="text" d="M9.7,17.3l2.9,0.1c0.9,0,1.6,0.1,2.1,0.3s0.8,0.5,1.1,0.9c0.3,0.4,0.4,1.1,0.4,2.1c0,0.6-0.1,1.1-0.4,1.3
	c-0.2,0.2-0.6,0.4-1.2,0.5c0.7,0.2,1.1,0.4,1.3,0.8c0.2,0.4,0.3,0.9,0.3,1.6l0,1c0,0.7-0.1,1.3-0.3,1.7c-0.2,0.4-0.5,0.6-0.8,0.7
	c-0.4,0.1-1.1,0.2-2.3,0.1l-3.3-0.1L9.7,17.3z M12.4,23.5l-0.1,3.1c0.4,0,0.7-0.1,0.8-0.2c0.1-0.1,0.2-0.4,0.2-0.8l0-1
	c0-0.5,0-0.8-0.1-0.9C13.1,23.6,12.8,23.6,12.4,23.5z M12.5,19.3l-0.1,2.5c0.1,0,0.2,0,0.3,0c0.3,0,0.5-0.1,0.5-0.2
	c0.1-0.1,0.1-0.5,0.2-1.2c0-0.3,0-0.6-0.1-0.7c-0.1-0.1-0.1-0.2-0.2-0.3C13,19.4,12.8,19.4,12.5,19.3z M24,17.8l-0.3,7.4
	c0,0.8-0.1,1.4-0.1,1.8c-0.1,0.3-0.2,0.7-0.5,1c-0.3,0.3-0.6,0.6-1.1,0.8C21.5,29,21,29,20.4,29c-0.7,0-1.2-0.2-1.7-0.4
	c-0.5-0.2-0.9-0.5-1.1-0.9c-0.2-0.4-0.4-0.7-0.4-1.1c0-0.4,0-1.2,0-2.5l0.2-6.5l2.9,0.1L20,26c0,0.5,0,0.8,0,0.9
	c0,0.1,0.2,0.2,0.3,0.2c0.2,0,0.3-0.1,0.4-0.2s0.1-0.5,0.1-1l0.3-8.2L24,17.8z M30.9,18.1l-0.1,2.2l-1.7-0.1l-0.3,8.8L25.9,29
	l0.3-8.8l-1.7-0.1l0.1-2.2L30.9,18.1z M38.1,23.2l-2.9-0.1l0.1-1.9c0-0.6,0-0.9-0.1-1.1c-0.1-0.1-0.2-0.2-0.4-0.2
	c-0.2,0-0.4,0.1-0.5,0.2c-0.1,0.2-0.1,0.5-0.1,1.1l-0.2,5.1c0,0.5,0,0.9,0.1,1.1c0.1,0.2,0.2,0.3,0.4,0.3c0.2,0,0.4-0.1,0.4-0.2
	c0.1-0.2,0.1-0.5,0.1-1.2l0-1.4L38,25l0,0.4c0,1.1-0.1,2-0.3,2.4c-0.2,0.5-0.6,0.9-1.1,1.2c-0.6,0.3-1.3,0.5-2.1,0.5
	c-0.8,0-1.5-0.2-2.1-0.5c-0.5-0.3-0.9-0.8-1-1.3c-0.2-0.5-0.2-1.4-0.2-2.4l0.1-3.2c0-0.8,0.1-1.4,0.1-1.8c0.1-0.4,0.2-0.8,0.5-1.1
	c0.3-0.4,0.7-0.6,1.2-0.8c0.5-0.2,1-0.3,1.7-0.3c0.8,0,1.5,0.2,2.1,0.6c0.5,0.3,0.9,0.8,1,1.3s0.2,1.3,0.2,2.3L38.1,23.2z
	 M45.9,18.6l-0.4,11.1l-2.9-0.1l0.2-4.6l-0.9,0l-0.2,4.6l-2.9-0.1l0.4-11.1l2.9,0.1l-0.1,4l0.9,0l0.1-4L45.9,18.6z M47.1,18.7
	l4.8,0.2L51.8,21L49.9,21l-0.1,2.1l1.8,0.1l-0.1,2.1l-1.8-0.1l-0.1,2.4l2.1,0.1l-0.1,2.2l-5-0.2L47.1,18.7z M52.9,18.9l2,0.1
	c1.4,0,2.3,0.1,2.8,0.3c0.5,0.1,0.9,0.4,1.1,0.8c0.3,0.4,0.4,1.1,0.4,2.1c0,0.9-0.2,1.4-0.4,1.7c-0.2,0.3-0.7,0.5-1.3,0.5
	c0.6,0.2,0.9,0.4,1.1,0.6c0.2,0.2,0.3,0.5,0.3,0.7c0,0.2,0,0.7,0,1.6l-0.1,2.9L56.3,30l0.1-3.7c0-0.6,0-1-0.1-1.1S56,25,55.6,25
	l-0.2,5l-2.9-0.1L52.9,18.9z M55.7,20.8l-0.1,2.5c0.3,0,0.6,0,0.7-0.1c0.1-0.1,0.2-0.4,0.2-0.9l0-0.6c0-0.4,0-0.6-0.2-0.7
	S56,20.9,55.7,20.8z M71.3,22.9l-2.7-0.1l0-0.8c0-0.4,0-0.6-0.1-0.7c-0.1-0.1-0.2-0.2-0.3-0.2c-0.2,0-0.3,0.1-0.4,0.2
	c-0.1,0.1-0.1,0.4-0.2,0.6c0,0.4,0,0.6,0.1,0.8c0.1,0.2,0.4,0.4,0.8,0.7c1.3,0.8,2,1.5,2.4,2c0.3,0.5,0.5,1.3,0.4,2.4
	c0,0.8-0.1,1.4-0.3,1.7c-0.2,0.4-0.6,0.7-1.1,0.9c-0.5,0.2-1.2,0.3-1.9,0.3c-0.8,0-1.4-0.2-2-0.5s-0.9-0.7-1-1.2
	c-0.2-0.5-0.2-1.1-0.2-1.9l0-0.7l2.7,0.1l0,1.3c0,0.4,0,0.7,0.1,0.8c0.1,0.1,0.2,0.2,0.4,0.2c0.2,0,0.3-0.1,0.4-0.2
	c0.1-0.1,0.2-0.4,0.2-0.7c0-0.7-0.1-1.1-0.2-1.3c-0.2-0.2-0.6-0.6-1.3-1.1c-0.7-0.5-1.2-0.9-1.4-1.1s-0.4-0.5-0.5-0.9
	c-0.1-0.4-0.2-0.9-0.2-1.5c0-0.8,0.2-1.5,0.4-1.8c0.2-0.4,0.6-0.7,1.1-0.9c0.5-0.2,1.1-0.3,1.8-0.3c0.7,0,1.4,0.2,1.9,0.4
	c0.5,0.3,0.9,0.6,1,0.9c0.2,0.4,0.2,1,0.2,1.9L71.3,22.9z M79.1,24.6l-2.9-0.1l0.1-1.9c0-0.6,0-0.9-0.1-1s-0.2-0.2-0.4-0.2
	c-0.2,0-0.4,0.1-0.5,0.2c-0.1,0.2-0.1,0.5-0.1,1.1l-0.2,5.1c0,0.5,0,0.9,0.1,1.1c0.1,0.2,0.2,0.3,0.4,0.3c0.2,0,0.4-0.1,0.4-0.2
	c0.1-0.2,0.1-0.5,0.1-1.2l0-1.4l2.9,0.1l0,0.4c0,1.1-0.1,2-0.3,2.4c-0.2,0.5-0.6,0.9-1.1,1.2c-0.6,0.3-1.3,0.5-2.1,0.5
	c-0.8,0-1.5-0.2-2.1-0.5c-0.5-0.3-0.9-0.8-1-1.3c-0.2-0.5-0.2-1.4-0.2-2.4l0.1-3.2c0-0.8,0.1-1.4,0.1-1.8c0.1-0.4,0.2-0.8,0.5-1.1
	c0.3-0.4,0.7-0.6,1.2-0.8c0.5-0.2,1-0.3,1.7-0.3c0.8,0,1.5,0.2,2.1,0.6c0.5,0.3,0.9,0.8,1,1.3c0.2,0.5,0.2,1.3,0.2,2.3L79.1,24.6z
	 M80.3,19.8l4.8,0.2l-0.1,2.2l-1.9-0.1l-0.1,2.1l1.8,0.1l-0.1,2.1L83,26.3l-0.1,2.4l2.1,0.1L84.9,31l-5-0.2L80.3,19.8z M92.6,20.2
	l-0.4,11.1l-2.5-0.1l-1.3-5.1l-0.2,5l-2.4-0.1L86.2,20l2.4,0.1l1.4,5l0.2-5L92.6,20.2z M93.7,20.3l4.8,0.2l-0.1,2.2l-1.9-0.1
	l-0.1,2.1l1.8,0.1l-0.1,2.1l-1.8-0.1l-0.1,2.4l2.1,0.1l-0.1,2.2l-5-0.2L93.7,20.3z M124.2,21.3l2.9,0.1c0.9,0,1.6,0.1,2.1,0.3
	c0.5,0.2,0.8,0.5,1.1,0.9c0.3,0.4,0.4,1.1,0.4,2.1c0,0.6-0.1,1.1-0.4,1.3c-0.2,0.2-0.6,0.4-1.2,0.5c0.7,0.2,1.1,0.4,1.3,0.8
	c0.2,0.4,0.3,0.9,0.3,1.6l0,1c0,0.7-0.1,1.3-0.3,1.7c-0.2,0.4-0.5,0.6-0.8,0.7c-0.4,0.1-1.1,0.2-2.3,0.1l-3.3-0.1L124.2,21.3z
	 M126.9,27.5l-0.1,3.1c0.4,0,0.7-0.1,0.8-0.2c0.1-0.1,0.2-0.4,0.2-0.8l0-1c0-0.5,0-0.8-0.1-0.9C127.6,27.6,127.3,27.5,126.9,27.5z
	 M127,23.3l-0.1,2.5c0.1,0,0.2,0,0.3,0c0.3,0,0.5-0.1,0.5-0.2c0.1-0.1,0.1-0.5,0.2-1.2c0-0.3,0-0.6-0.1-0.7
	c-0.1-0.1-0.1-0.2-0.2-0.3C127.5,23.4,127.3,23.4,127,23.3z M138.5,21.8l-0.3,7.4c0,0.8-0.1,1.4-0.1,1.8c-0.1,0.3-0.2,0.7-0.5,1
	c-0.3,0.3-0.6,0.6-1.1,0.8c-0.4,0.2-1,0.2-1.6,0.2c-0.7,0-1.2-0.2-1.7-0.4c-0.5-0.2-0.9-0.5-1.1-0.9s-0.4-0.7-0.4-1.1s0-1.2,0-2.5
	l0.2-6.5l2.9,0.1l-0.3,8.3c0,0.5,0,0.8,0,0.9c0,0.1,0.2,0.2,0.3,0.2c0.2,0,0.3-0.1,0.4-0.2s0.1-0.5,0.1-1l0.3-8.2L138.5,21.8z
	 M145.4,22.1l-0.1,2.2l-1.7-0.1l-0.3,8.8l-2.9-0.1l0.3-8.8l-1.7-0.1l0.1-2.2L145.4,22.1z M152.6,27.2l-2.9-0.1l0.1-1.9
	c0-0.6,0-0.9-0.1-1.1c-0.1-0.1-0.2-0.2-0.4-0.2c-0.2,0-0.4,0.1-0.5,0.2c-0.1,0.2-0.1,0.5-0.1,1.1l-0.2,5.1c0,0.5,0,0.9,0.1,1.1
	c0.1,0.2,0.2,0.3,0.4,0.3c0.2,0,0.4-0.1,0.4-0.2c0.1-0.2,0.1-0.5,0.1-1.2l0-1.4l2.9,0.1l0,0.4c0,1.1-0.1,2-0.3,2.4
	c-0.2,0.5-0.6,0.9-1.1,1.2c-0.6,0.3-1.3,0.5-2.1,0.5c-0.8,0-1.5-0.2-2.1-0.5c-0.5-0.3-0.9-0.8-1-1.3c-0.2-0.5-0.2-1.4-0.2-2.4
	l0.1-3.2c0-0.8,0.1-1.4,0.1-1.8c0.1-0.4,0.2-0.8,0.5-1.1c0.3-0.4,0.7-0.6,1.2-0.8c0.5-0.2,1-0.3,1.7-0.3c0.8,0,1.5,0.2,2.1,0.6
	c0.5,0.3,0.9,0.8,1,1.3c0.2,0.5,0.2,1.3,0.2,2.3L152.6,27.2z M160.4,22.6L160,33.7l-2.9-0.1l0.2-4.6l-0.9,0l-0.2,4.6l-2.9-0.1
	l0.4-11.1l2.9,0.1l-0.1,4l0.9,0l0.1-4L160.4,22.6z M161.5,22.6l4.8,0.2l-0.1,2.2l-1.9-0.1l-0.1,2.1l1.8,0.1l-0.1,2.1l-1.8-0.1
	l-0.1,2.4l2.1,0.1l-0.1,2.2l-5-0.2L161.5,22.6z M167.4,22.9l2,0.1c1.4,0,2.3,0.1,2.8,0.3c0.5,0.1,0.9,0.4,1.1,0.8
	c0.3,0.4,0.4,1.1,0.4,2.1c0,0.9-0.2,1.4-0.4,1.7c-0.2,0.3-0.7,0.5-1.3,0.5c0.6,0.2,0.9,0.4,1.1,0.6c0.2,0.2,0.3,0.5,0.3,0.7
	c0,0.2,0,0.7,0,1.6l-0.1,2.9l-2.7-0.1l0.1-3.7c0-0.6,0-1-0.1-1.1c-0.1-0.1-0.3-0.2-0.7-0.2l-0.2,5l-2.9-0.1L167.4,22.9z M170.2,24.8
	l-0.1,2.5c0.3,0,0.6,0,0.7-0.1c0.1-0.1,0.2-0.4,0.2-0.9l0-0.6c0-0.4,0-0.6-0.2-0.7S170.5,24.9,170.2,24.8z M185.8,26.8l-2.7-0.1
	l0-0.8c0-0.4,0-0.6-0.1-0.7c-0.1-0.1-0.2-0.2-0.3-0.2c-0.2,0-0.3,0.1-0.4,0.2c-0.1,0.1-0.1,0.4-0.2,0.6c0,0.4,0,0.6,0.1,0.8
	c0.1,0.2,0.4,0.4,0.8,0.7c1.3,0.8,2,1.5,2.4,2c0.3,0.5,0.5,1.3,0.4,2.4c0,0.8-0.1,1.4-0.3,1.7c-0.2,0.4-0.6,0.7-1.1,0.9
	c-0.5,0.2-1.2,0.3-1.9,0.3c-0.8,0-1.4-0.2-2-0.5c-0.5-0.3-0.9-0.7-1-1.2s-0.2-1.1-0.2-1.9l0-0.7l2.7,0.1l0,1.3c0,0.4,0,0.7,0.1,0.8
	c0.1,0.1,0.2,0.2,0.4,0.2s0.3-0.1,0.4-0.2c0.1-0.1,0.2-0.4,0.2-0.7c0-0.7-0.1-1.1-0.2-1.3c-0.2-0.2-0.6-0.6-1.3-1.1
	c-0.7-0.5-1.2-0.9-1.4-1.1c-0.2-0.2-0.4-0.5-0.5-0.9c-0.1-0.4-0.2-0.9-0.2-1.5c0-0.8,0.2-1.5,0.4-1.8c0.2-0.4,0.6-0.7,1.1-0.9
	c0.5-0.2,1.1-0.3,1.8-0.3c0.7,0,1.4,0.2,1.9,0.4c0.5,0.3,0.9,0.6,1,0.9s0.2,1,0.2,1.9L185.8,26.8z M193.6,28.6l-2.9-0.1l0.1-1.9
	c0-0.6,0-0.9-0.1-1s-0.2-0.2-0.4-0.2c-0.2,0-0.4,0.1-0.5,0.2c-0.1,0.2-0.1,0.5-0.1,1.1l-0.2,5.1c0,0.5,0,0.9,0.1,1.1
	c0.1,0.2,0.2,0.3,0.4,0.3c0.2,0,0.4-0.1,0.4-0.2c0.1-0.2,0.1-0.5,0.1-1.2l0-1.4l2.9,0.1l0,0.4c0,1.1-0.1,2-0.3,2.4
	c-0.2,0.5-0.6,0.9-1.1,1.2c-0.6,0.3-1.3,0.5-2.1,0.5c-0.8,0-1.5-0.2-2.1-0.5c-0.5-0.3-0.9-0.8-1-1.3c-0.2-0.5-0.2-1.4-0.2-2.4
	l0.1-3.2c0-0.8,0.1-1.4,0.1-1.8c0.1-0.4,0.2-0.8,0.5-1.1c0.3-0.4,0.7-0.6,1.2-0.8c0.5-0.2,1-0.3,1.7-0.3c0.8,0,1.5,0.2,2.1,0.6
	c0.5,0.3,0.9,0.8,1,1.3c0.2,0.5,0.2,1.3,0.2,2.3L193.6,28.6z M194.8,23.8l4.8,0.2l-0.1,2.2l-1.9-0.1l-0.1,2.1l1.8,0.1l-0.1,2.1
	l-1.8-0.1l-0.1,2.4l2.1,0.1l-0.1,2.2l-5-0.2L194.8,23.8z M207,24.2l-0.4,11.1l-2.5-0.1l-1.3-5.1l-0.2,5l-2.4-0.1l0.4-11.1l2.4,0.1
	l1.4,5l0.2-5L207,24.2z M208.2,24.3l4.8,0.2l-0.1,2.2l-1.9-0.1l-0.1,2.1l1.8,0.1l-0.1,2.1l-1.8-0.1l-0.1,2.4l2.1,0.1l-0.1,2.2
	l-5-0.2L208.2,24.3z M238.7,25.3l2.9,0.1c0.9,0,1.6,0.1,2.1,0.3c0.5,0.2,0.8,0.5,1.1,0.9c0.3,0.4,0.4,1.1,0.4,2.1
	c0,0.6-0.1,1.1-0.4,1.3c-0.2,0.2-0.6,0.4-1.2,0.5c0.7,0.2,1.1,0.4,1.3,0.8c0.2,0.4,0.3,0.9,0.3,1.6l0,1c0,0.7-0.1,1.3-0.3,1.7
	c-0.2,0.4-0.5,0.6-0.8,0.7s-1.1,0.2-2.3,0.1l-3.3-0.1L238.7,25.3z M241.3,31.5l-0.1,3.1c0.4,0,0.7-0.1,0.8-0.2
	c0.1-0.1,0.2-0.4,0.2-0.8l0-1c0-0.5,0-0.8-0.1-0.9S241.8,31.5,241.3,31.5z M241.5,27.3l-0.1,2.5c0.1,0,0.2,0,0.3,0
	c0.3,0,0.5-0.1,0.5-0.2c0.1-0.1,0.1-0.5,0.2-1.2c0-0.3,0-0.6-0.1-0.7c-0.1-0.1-0.1-0.2-0.2-0.3C242,27.4,241.8,27.4,241.5,27.3z
	 M252.9,25.8l-0.3,7.4c0,0.8-0.1,1.4-0.1,1.8c-0.1,0.3-0.2,0.7-0.5,1c-0.3,0.3-0.6,0.6-1.1,0.8c-0.4,0.2-1,0.2-1.6,0.2
	c-0.7,0-1.2-0.2-1.7-0.4c-0.5-0.2-0.9-0.5-1.1-0.9s-0.4-0.7-0.4-1.1c0-0.4,0-1.2,0-2.5l0.2-6.5l2.9,0.1L249,34c0,0.5,0,0.8,0,0.9
	c0,0.1,0.2,0.2,0.3,0.2c0.2,0,0.3-0.1,0.4-0.2c0.1-0.1,0.1-0.5,0.1-1l0.3-8.2L252.9,25.8z M259.9,26.1l-0.1,2.2l-1.7-0.1l-0.3,8.8
	l-2.9-0.1l0.3-8.8l-1.7-0.1l0.1-2.2L259.9,26.1z M267.1,31.2l-2.9-0.1l0.1-1.9c0-0.6,0-0.9-0.1-1c-0.1-0.1-0.2-0.2-0.4-0.2
	c-0.2,0-0.4,0.1-0.5,0.2s-0.1,0.5-0.1,1.1l-0.2,5.1c0,0.5,0,0.9,0.1,1.1c0.1,0.2,0.2,0.3,0.4,0.3c0.2,0,0.4-0.1,0.4-0.2
	c0.1-0.2,0.1-0.5,0.1-1.2l0-1.4L267,33l0,0.4c0,1.1-0.1,2-0.3,2.4c-0.2,0.5-0.6,0.9-1.1,1.2c-0.6,0.3-1.3,0.5-2.1,0.5
	c-0.8,0-1.5-0.2-2.1-0.5c-0.5-0.3-0.9-0.8-1-1.3c-0.2-0.5-0.2-1.4-0.2-2.4l0.1-3.2c0-0.8,0.1-1.4,0.1-1.8c0.1-0.4,0.2-0.8,0.5-1.1
	s0.7-0.6,1.2-0.8c0.5-0.2,1-0.3,1.7-0.3c0.8,0,1.5,0.2,2.1,0.6c0.5,0.3,0.9,0.8,1,1.3c0.2,0.5,0.2,1.3,0.2,2.3L267.1,31.2z
	 M274.9,26.6l-0.4,11.1l-2.9-0.1l0.2-4.6l-0.9,0l-0.2,4.6l-2.9-0.1l0.4-11.1l2.9,0.1l-0.1,4l0.9,0l0.1-4L274.9,26.6z M276,26.6
	l4.8,0.2l-0.1,2.2l-1.9-0.1l-0.1,2.1l1.8,0.1l-0.1,2.1l-1.8-0.1l-0.1,2.4l2.1,0.1l-0.1,2.2l-5-0.2L276,26.6z M281.8,26.9l2,0.1
	c1.4,0,2.3,0.1,2.8,0.3c0.5,0.1,0.9,0.4,1.1,0.8c0.3,0.4,0.4,1.1,0.4,2.1c0,0.9-0.2,1.4-0.4,1.7c-0.2,0.3-0.7,0.5-1.3,0.5
	c0.6,0.2,0.9,0.4,1.1,0.6c0.2,0.2,0.3,0.5,0.3,0.7c0,0.2,0,0.7,0,1.6l-0.1,2.9l-2.7-0.1l0.1-3.7c0-0.6,0-1-0.1-1.1
	c-0.1-0.1-0.3-0.2-0.7-0.2l-0.2,5l-2.9-0.1L281.8,26.9z M284.6,28.8l-0.1,2.5c0.3,0,0.6,0,0.7-0.1c0.1-0.1,0.2-0.4,0.2-0.9l0-0.6
	c0-0.4,0-0.6-0.2-0.7S285,28.9,284.6,28.8z M300.3,30.8l-2.7-0.1l0-0.8c0-0.4,0-0.6-0.1-0.7c-0.1-0.1-0.2-0.2-0.3-0.2
	c-0.2,0-0.3,0.1-0.4,0.2c-0.1,0.1-0.1,0.4-0.2,0.6c0,0.4,0,0.6,0.1,0.8c0.1,0.2,0.4,0.4,0.8,0.7c1.3,0.8,2,1.5,2.4,2
	c0.3,0.5,0.5,1.3,0.4,2.4c0,0.8-0.1,1.4-0.3,1.7c-0.2,0.4-0.6,0.7-1.1,0.9c-0.5,0.2-1.2,0.3-1.9,0.3c-0.8,0-1.4-0.2-2-0.5
	s-0.9-0.7-1-1.2c-0.2-0.5-0.2-1.1-0.2-1.9l0-0.7l2.7,0.1l0,1.3c0,0.4,0,0.7,0.1,0.8c0.1,0.1,0.2,0.2,0.4,0.2s0.3-0.1,0.4-0.2
	c0.1-0.1,0.2-0.4,0.2-0.7c0-0.7-0.1-1.1-0.2-1.3c-0.2-0.2-0.6-0.6-1.3-1.1c-0.7-0.5-1.2-0.9-1.4-1.1c-0.2-0.2-0.4-0.5-0.5-0.9
	c-0.1-0.4-0.2-0.9-0.2-1.5c0-0.8,0.2-1.5,0.4-1.8c0.2-0.4,0.6-0.7,1.1-0.9c0.5-0.2,1.1-0.3,1.8-0.3c0.7,0,1.4,0.2,1.9,0.4
	c0.5,0.3,0.9,0.6,1,0.9c0.2,0.4,0.2,1,0.2,1.9L300.3,30.8z M308.1,32.6l-2.9-0.1l0.1-1.9c0-0.6,0-0.9-0.1-1.1
	c-0.1-0.1-0.2-0.2-0.4-0.2c-0.2,0-0.4,0.1-0.5,0.2c-0.1,0.2-0.1,0.5-0.1,1.1l-0.2,5.1c0,0.5,0,0.9,0.1,1.1c0.1,0.2,0.2,0.3,0.4,0.3
	c0.2,0,0.4-0.1,0.4-0.2c0.1-0.2,0.1-0.5,0.1-1.2l0-1.4l2.9,0.1l0,0.4c0,1.1-0.1,2-0.3,2.4c-0.2,0.5-0.6,0.9-1.1,1.2
	c-0.6,0.3-1.3,0.5-2.1,0.5c-0.8,0-1.5-0.2-2.1-0.5c-0.5-0.3-0.9-0.8-1-1.3c-0.2-0.5-0.2-1.4-0.2-2.4l0.1-3.2c0-0.8,0.1-1.4,0.1-1.8
	c0.1-0.4,0.2-0.8,0.5-1.1c0.3-0.4,0.7-0.6,1.2-0.8c0.5-0.2,1-0.3,1.7-0.3c0.8,0,1.5,0.2,2.1,0.6c0.5,0.3,0.9,0.8,1,1.3
	s0.2,1.3,0.2,2.3L308.1,32.6z M309.3,27.8l4.8,0.2l-0.1,2.2l-1.9-0.1l-0.1,2.1l1.8,0.1l-0.1,2.1l-1.8-0.1l-0.1,2.4l2.1,0.1l-0.1,2.2
	l-5-0.2L309.3,27.8z M321.5,28.2l-0.4,11.1l-2.5-0.1l-1.3-5.1l-0.2,5l-2.4-0.1l0.4-11.1l2.4,0.1l1.4,5l0.2-5L321.5,28.2z
	 M322.7,28.3l4.8,0.2l-0.1,2.2l-1.9-0.1l-0.1,2.1l1.8,0.1l-0.1,2.1l-1.8-0.1l-0.1,2.4l2.1,0.1l-0.1,2.2l-5-0.2L322.7,28.3z
	 M353.2,29.3l2.9,0.1c0.9,0,1.6,0.1,2.1,0.3c0.5,0.2,0.8,0.5,1.1,0.9c0.3,0.4,0.4,1.1,0.4,2.1c0,0.6-0.1,1.1-0.4,1.3
	c-0.2,0.2-0.6,0.4-1.2,0.5c0.7,0.2,1.1,0.4,1.3,0.8c0.2,0.4,0.3,0.9,0.3,1.6l0,1c0,0.7-0.1,1.3-0.3,1.7c-0.2,0.4-0.5,0.6-0.8,0.7
	c-0.4,0.1-1.1,0.2-2.3,0.1l-3.3-0.1L353.2,29.3z M355.8,35.5l-0.1,3.1c0.4,0,0.7-0.1,0.8-0.2c0.1-0.1,0.2-0.4,0.2-0.8l0-1
	c0-0.5,0-0.8-0.1-0.9S356.2,35.5,355.8,35.5z M356,31.3l-0.1,2.5c0.1,0,0.2,0,0.3,0c0.3,0,0.5-0.1,0.5-0.2c0.1-0.1,0.1-0.5,0.2-1.2
	c0-0.3,0-0.6-0.1-0.7s-0.1-0.2-0.2-0.3C356.5,31.4,356.3,31.3,356,31.3z M367.4,29.8l-0.3,7.4c0,0.8-0.1,1.4-0.1,1.8
	c-0.1,0.3-0.2,0.7-0.5,1c-0.3,0.3-0.6,0.6-1.1,0.8c-0.4,0.2-1,0.2-1.6,0.2c-0.7,0-1.2-0.2-1.7-0.4c-0.5-0.2-0.9-0.5-1.1-0.9
	c-0.2-0.4-0.4-0.7-0.4-1.1c0-0.4,0-1.2,0-2.5l0.2-6.5l2.9,0.1l-0.3,8.3c0,0.5,0,0.8,0,0.9c0,0.1,0.2,0.2,0.3,0.2
	c0.2,0,0.3-0.1,0.4-0.2c0.1-0.1,0.1-0.5,0.1-1l0.3-8.2L367.4,29.8z M374.3,30.1l-0.1,2.2l-1.7-0.1l-0.3,8.8l-2.9-0.1l0.3-8.8
	l-1.7-0.1l0.1-2.2L374.3,30.1z M381.5,35.2l-2.9-0.1l0.1-1.9c0-0.6,0-0.9-0.1-1c-0.1-0.1-0.2-0.2-0.4-0.2c-0.2,0-0.4,0.1-0.5,0.2
	c-0.1,0.2-0.1,0.5-0.1,1.1l-0.2,5.1c0,0.5,0,0.9,0.1,1.1c0.1,0.2,0.2,0.3,0.4,0.3c0.2,0,0.4-0.1,0.4-0.2c0.1-0.2,0.1-0.5,0.1-1.2
	l0-1.4l2.9,0.1l0,0.4c0,1.1-0.1,2-0.3,2.4c-0.2,0.5-0.6,0.9-1.1,1.2c-0.6,0.3-1.3,0.5-2.1,0.5c-0.8,0-1.5-0.2-2.1-0.5
	c-0.5-0.3-0.9-0.8-1-1.3c-0.2-0.5-0.2-1.4-0.2-2.4l0.1-3.2c0-0.8,0.1-1.4,0.1-1.8c0.1-0.4,0.2-0.8,0.5-1.1s0.7-0.6,1.2-0.8
	c0.5-0.2,1-0.3,1.7-0.3c0.8,0,1.5,0.2,2.1,0.6s0.9,0.8,1,1.3c0.2,0.5,0.2,1.3,0.2,2.3L381.5,35.2z M389.3,30.6L389,41.7l-2.9-0.1
	l0.2-4.6l-0.9,0l-0.2,4.6l-2.9-0.1l0.4-11.1l2.9,0.1l-0.1,4l0.9,0l0.1-4L389.3,30.6z M390.5,30.6l4.8,0.2l-0.1,2.2l-1.9-0.1
	l-0.1,2.1l1.8,0.1l-0.1,2.1l-1.8-0.1l-0.1,2.4l2.1,0.1l-0.1,2.2l-5-0.2L390.5,30.6z M396.3,30.8l2,0.1c1.4,0,2.3,0.1,2.8,0.3
	c0.5,0.1,0.9,0.4,1.1,0.8c0.3,0.4,0.4,1.1,0.4,2.1c0,0.9-0.2,1.4-0.4,1.7s-0.7,0.5-1.3,0.5c0.6,0.2,0.9,0.4,1.1,0.6
	c0.2,0.2,0.3,0.5,0.3,0.7c0,0.2,0,0.7,0,1.6l-0.1,2.9l-2.7-0.1l0.1-3.7c0-0.6,0-1-0.1-1.1c-0.1-0.1-0.3-0.2-0.7-0.2l-0.2,5l-2.9-0.1
	L396.3,30.8z M399.1,32.8l-0.1,2.5c0.3,0,0.6,0,0.7-0.1c0.1-0.1,0.2-0.4,0.2-0.9l0-0.6c0-0.4,0-0.6-0.2-0.7S399.5,32.9,399.1,32.8z
	 M414.8,34.8l-2.7-0.1l0-0.8c0-0.4,0-0.6-0.1-0.7c-0.1-0.1-0.2-0.2-0.3-0.2c-0.2,0-0.3,0.1-0.4,0.2c-0.1,0.1-0.1,0.4-0.2,0.6
	c0,0.4,0,0.6,0.1,0.8c0.1,0.2,0.4,0.4,0.8,0.7c1.3,0.8,2,1.5,2.4,2c0.3,0.5,0.5,1.3,0.4,2.4c0,0.8-0.1,1.4-0.3,1.7
	c-0.2,0.4-0.6,0.7-1.1,0.9c-0.5,0.2-1.2,0.3-1.9,0.3c-0.8,0-1.4-0.2-2-0.5c-0.5-0.3-0.9-0.7-1-1.2c-0.2-0.5-0.2-1.1-0.2-1.9l0-0.7
	l2.7,0.1l0,1.3c0,0.4,0,0.7,0.1,0.8c0.1,0.1,0.2,0.2,0.4,0.2c0.2,0,0.3-0.1,0.4-0.2c0.1-0.1,0.2-0.4,0.2-0.7c0-0.7-0.1-1.1-0.2-1.3
	c-0.2-0.2-0.6-0.6-1.3-1.1c-0.7-0.5-1.2-0.9-1.4-1.1c-0.2-0.2-0.4-0.5-0.5-0.9c-0.1-0.4-0.2-0.9-0.2-1.5c0-0.8,0.2-1.5,0.4-1.8
	s0.6-0.7,1.1-0.9c0.5-0.2,1.1-0.3,1.8-0.3c0.7,0,1.4,0.2,1.9,0.4c0.5,0.3,0.9,0.6,1,0.9c0.2,0.4,0.2,1,0.2,1.9L414.8,34.8z
	 M422.6,36.6l-2.9-0.1l0.1-1.9c0-0.6,0-0.9-0.1-1.1c-0.1-0.1-0.2-0.2-0.4-0.2c-0.2,0-0.4,0.1-0.5,0.2s-0.1,0.5-0.1,1.1l-0.2,5.1
	c0,0.5,0,0.9,0.1,1.1c0.1,0.2,0.2,0.3,0.4,0.3c0.2,0,0.4-0.1,0.4-0.2c0.1-0.2,0.1-0.5,0.1-1.2l0-1.4l2.9,0.1l0,0.4
	c0,1.1-0.1,2-0.3,2.4c-0.2,0.5-0.6,0.9-1.1,1.2c-0.6,0.3-1.3,0.5-2.1,0.5c-0.8,0-1.5-0.2-2.1-0.5c-0.5-0.3-0.9-0.8-1-1.3
	c-0.2-0.5-0.2-1.4-0.2-2.4l0.1-3.2c0-0.8,0.1-1.4,0.1-1.8c0.1-0.4,0.2-0.8,0.5-1.1c0.3-0.4,0.7-0.6,1.2-0.8c0.5-0.2,1-0.3,1.7-0.3
	c0.8,0,1.5,0.2,2.1,0.6c0.5,0.3,0.9,0.8,1,1.3s0.2,1.3,0.2,2.3L422.6,36.6z M423.8,31.8l4.8,0.2l-0.1,2.2l-1.9-0.1l-0.1,2.1l1.8,0.1
	l-0.1,2.1l-1.8-0.1l-0.1,2.4l2.1,0.1l-0.1,2.2l-5-0.2L423.8,31.8z M436,32.2l-0.4,11.1l-2.5-0.1l-1.3-5.1l-0.2,5l-2.4-0.1l0.4-11.1
	l2.4,0.1l1.4,5l0.2-5L436,32.2z M437.2,32.3l4.8,0.2l-0.1,2.2l-1.9-0.1l-0.1,2.1l1.8,0.1l-0.1,2.1l-1.8-0.1l-0.1,2.4l2.1,0.1
	l-0.1,2.2l-5-0.2L437.2,32.3z M467.6,33.3l2.9,0.1c0.9,0,1.6,0.1,2.1,0.3c0.5,0.2,0.8,0.5,1.1,0.9c0.3,0.4,0.4,1.1,0.4,2.1
	c0,0.6-0.1,1.1-0.4,1.3c-0.2,0.2-0.6,0.4-1.2,0.5c0.7,0.2,1.1,0.4,1.3,0.8c0.2,0.4,0.3,0.9,0.3,1.6l0,1c0,0.7-0.1,1.3-0.3,1.7
	c-0.2,0.4-0.5,0.6-0.8,0.7c-0.4,0.1-1.1,0.2-2.3,0.1l-3.3-0.1L467.6,33.3z M470.3,39.5l-0.1,3.1c0.4,0,0.7-0.1,0.8-0.2
	c0.1-0.1,0.2-0.4,0.2-0.8l0-1c0-0.5,0-0.8-0.1-0.9S470.7,39.5,470.3,39.5z M470.4,35.3l-0.1,2.5c0.1,0,0.2,0,0.3,0
	c0.3,0,0.5-0.1,0.5-0.2s0.1-0.5,0.2-1.2c0-0.3,0-0.6-0.1-0.7c-0.1-0.1-0.1-0.2-0.2-0.3S470.7,35.3,470.4,35.3z M481.9,33.8l-0.3,7.4
	c0,0.8-0.1,1.4-0.1,1.8c-0.1,0.3-0.2,0.7-0.5,1c-0.3,0.3-0.6,0.6-1.1,0.8c-0.4,0.2-1,0.2-1.6,0.2c-0.7,0-1.2-0.2-1.7-0.4
	c-0.5-0.2-0.9-0.5-1.1-0.9c-0.2-0.4-0.4-0.7-0.4-1.1c0-0.4,0-1.2,0-2.5l0.2-6.5l2.9,0.1l-0.3,8.3c0,0.5,0,0.8,0,0.9
	c0,0.1,0.2,0.2,0.3,0.2c0.2,0,0.3-0.1,0.4-0.2c0.1-0.1,0.1-0.5,0.1-1l0.3-8.2L481.9,33.8z M488.8,34.1l-0.1,2.2l-1.7-0.1l-0.3,8.8
	l-2.9-0.1l0.3-8.8l-1.7-0.1l0.1-2.2L488.8,34.1z M496,39.2l-2.9-0.1l0.1-1.9c0-0.6,0-0.9-0.1-1s-0.2-0.2-0.4-0.2
	c-0.2,0-0.4,0.1-0.5,0.2c-0.1,0.2-0.1,0.5-0.1,1.1l-0.2,5.1c0,0.5,0,0.9,0.1,1.1c0.1,0.2,0.2,0.3,0.4,0.3c0.2,0,0.4-0.1,0.4-0.2
	c0.1-0.2,0.1-0.5,0.1-1.2l0-1.4l2.9,0.1l0,0.4c0,1.1-0.1,2-0.3,2.4c-0.2,0.5-0.6,0.9-1.1,1.2c-0.6,0.3-1.3,0.5-2.1,0.5
	c-0.8,0-1.5-0.2-2.1-0.5c-0.5-0.3-0.9-0.8-1-1.3c-0.2-0.5-0.2-1.4-0.2-2.4l0.1-3.2c0-0.8,0.1-1.4,0.1-1.8c0.1-0.4,0.2-0.8,0.5-1.1
	s0.7-0.6,1.2-0.8c0.5-0.2,1-0.3,1.7-0.3c0.8,0,1.5,0.2,2.1,0.6s0.9,0.8,1,1.3c0.2,0.5,0.2,1.3,0.2,2.3L496,39.2z M503.8,34.6
	l-0.4,11.1l-2.9-0.1l0.2-4.6l-0.9,0l-0.2,4.6l-2.9-0.1l0.4-11.1l2.9,0.1l-0.1,4l0.9,0l0.1-4L503.8,34.6z M505,34.6l4.8,0.2l-0.1,2.2
	l-1.9-0.1l-0.1,2.1l1.8,0.1l-0.1,2.1l-1.8-0.1l-0.1,2.4l2.1,0.1l-0.1,2.2l-5-0.2L505,34.6z M510.8,34.8l2,0.1c1.4,0,2.3,0.1,2.8,0.3
	c0.5,0.1,0.9,0.4,1.1,0.8c0.3,0.4,0.4,1.1,0.4,2.1c0,0.9-0.2,1.4-0.4,1.7s-0.7,0.5-1.3,0.5c0.6,0.2,0.9,0.4,1.1,0.6
	c0.2,0.2,0.3,0.5,0.3,0.7c0,0.2,0,0.7,0,1.6l-0.1,2.9l-2.7-0.1l0.1-3.7c0-0.6,0-1-0.1-1.1s-0.3-0.2-0.7-0.2l-0.2,5l-2.9-0.1
	L510.8,34.8z M513.6,36.8l-0.1,2.5c0.3,0,0.6,0,0.7-0.1c0.1-0.1,0.2-0.4,0.2-0.9l0-0.6c0-0.4,0-0.6-0.2-0.7S513.9,36.8,513.6,36.8z
	 M529.2,38.8l-2.7-0.1l0-0.8c0-0.4,0-0.6-0.1-0.7c-0.1-0.1-0.2-0.2-0.3-0.2c-0.2,0-0.3,0.1-0.4,0.2c-0.1,0.1-0.1,0.4-0.2,0.6
	c0,0.4,0,0.6,0.1,0.8c0.1,0.2,0.4,0.4,0.8,0.7c1.3,0.8,2,1.5,2.4,2c0.3,0.5,0.5,1.3,0.4,2.4c0,0.8-0.1,1.4-0.3,1.7
	c-0.2,0.4-0.6,0.7-1.1,0.9c-0.5,0.2-1.2,0.3-1.9,0.3c-0.8,0-1.4-0.2-2-0.5c-0.5-0.3-0.9-0.7-1-1.2c-0.2-0.5-0.2-1.1-0.2-1.9l0-0.7
	l2.7,0.1l0,1.3c0,0.4,0,0.7,0.1,0.8c0.1,0.1,0.2,0.2,0.4,0.2c0.2,0,0.3-0.1,0.4-0.2s0.2-0.4,0.2-0.7c0-0.7-0.1-1.1-0.2-1.3
	c-0.2-0.2-0.6-0.6-1.3-1.1c-0.7-0.5-1.2-0.9-1.4-1.1c-0.2-0.2-0.4-0.5-0.5-0.9c-0.1-0.4-0.2-0.9-0.2-1.5c0-0.8,0.2-1.5,0.4-1.8
	s0.6-0.7,1.1-0.9c0.5-0.2,1.1-0.3,1.8-0.3c0.7,0,1.4,0.2,1.9,0.4s0.9,0.6,1,0.9c0.2,0.4,0.2,1,0.2,1.9L529.2,38.8z M537,40.6
	l-2.9-0.1l0.1-1.9c0-0.6,0-0.9-0.1-1.1c-0.1-0.1-0.2-0.2-0.4-0.2c-0.2,0-0.4,0.1-0.5,0.2c-0.1,0.2-0.1,0.5-0.1,1.1l-0.2,5.1
	c0,0.5,0,0.9,0.1,1.1c0.1,0.2,0.2,0.3,0.4,0.3c0.2,0,0.4-0.1,0.4-0.2c0.1-0.2,0.1-0.5,0.1-1.2l0-1.4l2.9,0.1l0,0.4
	c0,1.1-0.1,2-0.3,2.4c-0.2,0.5-0.6,0.9-1.1,1.2c-0.6,0.3-1.3,0.5-2.1,0.5c-0.8,0-1.5-0.2-2.1-0.5c-0.5-0.3-0.9-0.8-1-1.3
	c-0.2-0.5-0.2-1.4-0.2-2.4l0.1-3.2c0-0.8,0.1-1.4,0.1-1.8c0.1-0.4,0.2-0.8,0.5-1.1c0.3-0.4,0.7-0.6,1.2-0.8c0.5-0.2,1-0.3,1.7-0.3
	c0.8,0,1.5,0.2,2.1,0.6c0.5,0.3,0.9,0.8,1,1.3c0.2,0.5,0.2,1.3,0.2,2.3L537,40.6z M538.2,35.8L543,36l-0.1,2.2l-1.9-0.1l-0.1,2.1
	l1.8,0.1l-0.1,2.1l-1.8-0.1l-0.1,2.4l2.1,0.1l-0.1,2.2l-5-0.2L538.2,35.8z M550.5,36.2l-0.4,11.1l-2.5-0.1l-1.3-5.1l-0.2,5l-2.4-0.1
	L544,36l2.4,0.1l1.4,5l0.2-5L550.5,36.2z M551.6,36.3l4.8,0.2l-0.1,2.2l-1.9-0.1l-0.1,2.1l1.8,0.1l-0.1,2.1l-1.8-0.1l-0.1,2.4
	l2.1,0.1l-0.1,2.2l-5-0.2L551.6,36.3z M582.1,37.3l2.9,0.1c0.9,0,1.6,0.1,2.1,0.3c0.5,0.2,0.8,0.5,1.1,0.9c0.3,0.4,0.4,1.1,0.4,2.1
	c0,0.6-0.1,1.1-0.4,1.3c-0.2,0.2-0.6,0.4-1.2,0.5c0.7,0.2,1.1,0.4,1.3,0.8c0.2,0.4,0.3,0.9,0.3,1.6l0,1c0,0.7-0.1,1.3-0.3,1.7
	c-0.2,0.4-0.5,0.6-0.8,0.7c-0.4,0.1-1.1,0.2-2.3,0.1l-3.3-0.1L582.1,37.3z M584.8,43.5l-0.1,3.1c0.4,0,0.7-0.1,0.8-0.2
	c0.1-0.1,0.2-0.4,0.2-0.8l0-1c0-0.5,0-0.8-0.1-0.9S585.2,43.5,584.8,43.5z M584.9,39.3l-0.1,2.5c0.1,0,0.2,0,0.3,0
	c0.3,0,0.5-0.1,0.5-0.2s0.1-0.5,0.2-1.2c0-0.3,0-0.6-0.1-0.7c-0.1-0.1-0.1-0.2-0.2-0.3C585.4,39.4,585.2,39.3,584.9,39.3z
	 M596.4,37.8l-0.3,7.4c0,0.8-0.1,1.4-0.1,1.8c-0.1,0.3-0.2,0.7-0.5,1c-0.3,0.3-0.6,0.6-1.1,0.8c-0.4,0.2-1,0.2-1.6,0.2
	c-0.7,0-1.2-0.2-1.7-0.4c-0.5-0.2-0.9-0.5-1.1-0.9c-0.2-0.4-0.4-0.7-0.4-1.1c0-0.4,0-1.2,0-2.5l0.2-6.5l2.9,0.1l-0.3,8.3
	c0,0.5,0,0.8,0,0.9c0,0.1,0.2,0.2,0.3,0.2c0.2,0,0.3-0.1,0.4-0.2s0.1-0.5,0.1-1l0.3-8.2L596.4,37.8z M603.3,38.1l-0.1,2.2l-1.7-0.1
	l-0.3,8.8l-2.9-0.1l0.3-8.8l-1.7-0.1l0.1-2.2L603.3,38.1z M610.5,43.1l-2.9-0.1l0.1-1.9c0-0.6,0-0.9-0.1-1.1
	c-0.1-0.1-0.2-0.2-0.4-0.2c-0.2,0-0.4,0.1-0.5,0.2c-0.1,0.2-0.1,0.5-0.1,1.1l-0.2,5.1c0,0.5,0,0.9,0.1,1.1c0.1,0.2,0.2,0.3,0.4,0.3
	c0.2,0,0.4-0.1,0.4-0.2c0.1-0.2,0.1-0.5,0.1-1.2l0-1.4l2.9,0.1l0,0.4c0,1.1-0.1,2-0.3,2.4c-0.2,0.5-0.6,0.9-1.1,1.2
	c-0.6,0.3-1.3,0.5-2.1,0.5c-0.8,0-1.5-0.2-2.1-0.5c-0.5-0.3-0.9-0.8-1-1.3c-0.2-0.5-0.2-1.4-0.2-2.4l0.1-3.2c0-0.8,0.1-1.4,0.1-1.8
	c0.1-0.4,0.2-0.8,0.5-1.1c0.3-0.4,0.7-0.6,1.2-0.8c0.5-0.2,1-0.3,1.7-0.3c0.8,0,1.5,0.2,2.1,0.6c0.5,0.3,0.9,0.8,1,1.3
	c0.2,0.5,0.2,1.3,0.2,2.3L610.5,43.1z M618.3,38.6l-0.4,11.1l-2.9-0.1l0.2-4.6l-0.9,0l-0.2,4.6l-2.9-0.1l0.4-11.1l2.9,0.1l-0.1,4
	l0.9,0l0.1-4L618.3,38.6z M619.4,38.6l4.8,0.2l-0.1,2.2l-1.9-0.1l-0.1,2.1l1.8,0.1l-0.1,2.1l-1.8-0.1l-0.1,2.4l2.1,0.1l-0.1,2.2
	l-5-0.2L619.4,38.6z M625.3,38.8l2,0.1c1.4,0,2.3,0.1,2.8,0.3c0.5,0.1,0.9,0.4,1.1,0.8c0.3,0.4,0.4,1.1,0.4,2.1
	c0,0.9-0.2,1.4-0.4,1.7c-0.2,0.3-0.7,0.5-1.3,0.5c0.6,0.2,0.9,0.4,1.1,0.6c0.2,0.2,0.3,0.5,0.3,0.7c0,0.2,0,0.7,0,1.6l-0.1,2.9
	l-2.7-0.1l0.1-3.7c0-0.6,0-1-0.1-1.1s-0.3-0.2-0.7-0.2l-0.2,5l-2.9-0.1L625.3,38.8z M628.1,40.8l-0.1,2.5c0.3,0,0.6,0,0.7-0.1
	c0.1-0.1,0.2-0.4,0.2-0.9l0-0.6c0-0.4,0-0.6-0.2-0.7C628.6,40.9,628.4,40.8,628.1,40.8z M643.7,42.8l-2.7-0.1l0-0.8
	c0-0.4,0-0.6-0.1-0.7c-0.1-0.1-0.2-0.2-0.3-0.2c-0.2,0-0.3,0.1-0.4,0.2c-0.1,0.1-0.1,0.4-0.2,0.6c0,0.4,0,0.6,0.1,0.8
	c0.1,0.2,0.4,0.4,0.8,0.7c1.3,0.8,2,1.5,2.4,2c0.3,0.5,0.5,1.3,0.4,2.4c0,0.8-0.1,1.4-0.3,1.7c-0.2,0.4-0.6,0.7-1.1,0.9
	s-1.2,0.3-1.9,0.3c-0.8,0-1.4-0.2-2-0.5c-0.5-0.3-0.9-0.7-1-1.2c-0.2-0.5-0.2-1.1-0.2-1.9l0-0.7l2.7,0.1l0,1.3c0,0.4,0,0.7,0.1,0.8
	c0.1,0.1,0.2,0.2,0.4,0.2c0.2,0,0.3-0.1,0.4-0.2s0.2-0.4,0.2-0.7c0-0.7-0.1-1.1-0.2-1.3c-0.2-0.2-0.6-0.6-1.3-1.1
	c-0.7-0.5-1.2-0.9-1.4-1.1c-0.2-0.2-0.4-0.5-0.5-0.9c-0.1-0.4-0.2-0.9-0.2-1.5c0-0.8,0.2-1.5,0.4-1.8s0.6-0.7,1.1-0.9
	c0.5-0.2,1.1-0.3,1.8-0.3c0.7,0,1.4,0.2,1.9,0.4s0.9,0.6,1,0.9c0.2,0.4,0.2,1,0.2,1.9L643.7,42.8z M651.5,44.6l-2.9-0.1l0.1-1.9
	c0-0.6,0-0.9-0.1-1c-0.1-0.1-0.2-0.2-0.4-0.2c-0.2,0-0.4,0.1-0.5,0.2c-0.1,0.2-0.1,0.5-0.1,1.1l-0.2,5.1c0,0.5,0,0.9,0.1,1.1
	c0.1,0.2,0.2,0.3,0.4,0.3c0.2,0,0.4-0.1,0.4-0.2c0.1-0.2,0.1-0.5,0.1-1.2l0-1.4l2.9,0.1l0,0.4c0,1.1-0.1,2-0.3,2.4
	c-0.2,0.5-0.6,0.9-1.1,1.2c-0.6,0.3-1.3,0.5-2.1,0.5c-0.8,0-1.5-0.2-2.1-0.5c-0.5-0.3-0.9-0.8-1-1.3c-0.2-0.5-0.2-1.4-0.2-2.4
	l0.1-3.2c0-0.8,0.1-1.4,0.1-1.8c0.1-0.4,0.2-0.8,0.5-1.1s0.7-0.6,1.2-0.8c0.5-0.2,1-0.3,1.7-0.3c0.8,0,1.5,0.2,2.1,0.6
	s0.9,0.8,1,1.3c0.2,0.5,0.2,1.3,0.2,2.3L651.5,44.6z M652.7,39.8l4.8,0.2l-0.1,2.2l-1.9-0.1l-0.1,2.1l1.8,0.1l-0.1,2.1l-1.8-0.1
	l-0.1,2.4l2.1,0.1l-0.1,2.2l-5-0.2L652.7,39.8z M664.9,40.2l-0.4,11.1l-2.5-0.1l-1.3-5.1l-0.2,5l-2.4-0.1l0.4-11.1l2.4,0.1l1.4,5
	l0.2-5L664.9,40.2z M666.1,40.3l4.8,0.2l-0.1,2.2l-1.9-0.1l-0.1,2.1l1.8,0.1l-0.1,2.1l-1.8-0.1l-0.1,2.4l2.1,0.1l-0.1,2.2l-5-0.2
	L666.1,40.3z"/>
</svg>
